<svg xmlns="http://www.w3.org/2000/svg" viewBox="-15254 -3818 18 15.545">
  <path id="Combined-Shape" d="M8.955,11.545a3.273,3.273,0,1,1,3.273-3.273A3.273,3.273,0,0,1,8.955,11.545Zm0-1.636A1.636,1.636,0,1,0,7.318,8.273,1.636,1.636,0,0,0,8.955,9.909Zm3.682,9h-8.9A1.738,1.738,0,0,1,2,17.17l0-.058c0-.068.014-.183.028-.33.024-.245.052-.49.086-.721a4.084,4.084,0,0,1,.265-1.074c.511-1.111,4.058-2.624,6.573-2.624a11.59,11.59,0,0,1,4.278,1,4.091,4.091,0,1,1-.6,5.549ZM11.9,17.273h0a4.11,4.11,0,0,1,.309-2.566A9.084,9.084,0,0,0,8.955,14a9.271,9.271,0,0,0-3.484.8,8.722,8.722,0,0,0-1.255.648,2.974,2.974,0,0,0-.336.245l-.029.027a4.514,4.514,0,0,0-.115.578c-.03.2-.055.421-.076.641-.01.1-.017.188-.022.246a.1.1,0,0,0,.1.087Zm4.827-1.636v-.818a.818.818,0,1,0-1.636,0v.818h-.818a.818.818,0,0,0,0,1.636h.818v.818a.818.818,0,0,0,1.636,0v-.818h.818a.818.818,0,1,0,0-1.636Z" transform="translate(-15256 -3823)"/>
</svg>
