<svg xmlns="http://www.w3.org/2000/svg" viewBox="-20271 -18672 18 18">
  <defs>
    <style>
      .cls-1 {
        opacity: 0.45;
      }
    </style>
  </defs>
  <path id="add-pluss-3" class="cls-1" d="M11,20a9,9,0,1,1,9-9A9,9,0,0,1,11,20Zm0-1.636A7.364,7.364,0,1,0,3.636,11,7.364,7.364,0,0,0,11,18.364Zm.818-8.182h2.864a.818.818,0,1,1,0,1.636H11.818v2.864a.818.818,0,1,1-1.636,0V11.818H7.318a.818.818,0,0,1,0-1.636h2.864V7.318a.818.818,0,0,1,1.636,0Z" transform="translate(-20273 -18674)"/>
</svg>
