<svg xmlns="http://www.w3.org/2000/svg" viewBox="-18297 -6970 20 20">
  <defs>
    <style>
      .cls-1 {
        opacity: 0.4;
      }
    </style>
  </defs>
  <path id="arrow-down-3" class="cls-1" d="M12,22A10,10,0,1,1,22,12,10,10,0,0,1,12,22Zm0-1.818A8.182,8.182,0,1,0,3.818,12,8.182,8.182,0,0,0,12,20.182ZM8.552,9.539,12,12.987l3.448-3.448a.909.909,0,1,1,1.286,1.286l-4.091,4.091a.909.909,0,0,1-1.285,0L7.266,10.825A.909.909,0,1,1,8.552,9.539Z" transform="translate(-18275 -6948) rotate(180)"/>
</svg>
