<svg xmlns="http://www.w3.org/2000/svg" viewBox="-15254 -4059 18 18">
  <path id="Combined-Shape" d="M17.956,5.682A2.043,2.043,0,0,1,20,7.729v3.141a2.394,2.394,0,0,1-1.855,2.281L9.1,15.046a2.04,2.04,0,0,1-2.42-1.588L4.609,3.636H2.818A.818.818,0,1,1,2.818,2H5.273a.818.818,0,0,1,.8.649l.639,3.032ZM8.282,13.127a.4.4,0,0,0,.482.317l9.046-1.895a.763.763,0,0,0,.554-.68V7.729a.407.407,0,0,0-.407-.41H7.093ZM7.932,20a1.841,1.841,0,1,1,1.841-1.841A1.841,1.841,0,0,1,7.932,20Zm8.182,0a1.841,1.841,0,1,1,1.841-1.841A1.841,1.841,0,0,1,16.114,20Z" transform="translate(-15256 -4061)"/>
</svg>
