<svg xmlns="http://www.w3.org/2000/svg" viewBox="-18627 1436 16.363 18">
  <defs>
    <style>
      .cls-1 {
        fill: #fff;
      }
    </style>
  </defs>
  <path id="bin" class="cls-1" d="M18.673,8.514l-.679,9.5A2.155,2.155,0,0,1,15.867,20H8.5a2.152,2.152,0,0,1-2.127-1.986l-.678-9.5A2.049,2.049,0,0,1,4,6.5V5.682A2.047,2.047,0,0,1,5.991,3.637l2.646-.331A2.047,2.047,0,0,1,10.547,2h3.27a2.049,2.049,0,0,1,1.908,1.306l2.647.331a2.048,2.048,0,0,1,1.991,2.045V6.5A2.047,2.047,0,0,1,18.673,8.514Zm-11.34.031L8,17.9a.516.516,0,0,0,.495.466h7.371a.52.52,0,0,0,.495-.466l.668-9.352Zm6.079,2.387a.818.818,0,1,1,1.631.136l-.409,4.909A.818.818,0,1,1,13,15.841Zm-4.091.136a.818.818,0,1,1,1.631-.136l.409,4.909a.818.818,0,1,1-1.631.136Zm-3.273-5.8a.411.411,0,0,0-.412.409V6.5a.412.412,0,0,0,.412.409H18.315a.411.411,0,0,0,.412-.409V5.682a.412.412,0,0,0-.412-.409.818.818,0,0,1-.1-.006l-3.269-.409a.818.818,0,0,1-.717-.812.411.411,0,0,0-.41-.409h-3.27a.409.409,0,0,0-.41.409.818.818,0,0,1-.717.812L6.15,5.267a.818.818,0,0,1-.1.006Z" transform="translate(-18631 1434)"/>
</svg>
