<svg xmlns="http://www.w3.org/2000/svg" viewBox="-18665 1436 18 18">
  <defs>
    <style>
      .cls-1 {
        fill: #fff;
        fill-rule: evenodd;
      }
    </style>
  </defs>
  <path id="box-3" class="cls-1" d="M6.535,4.137l.016-.008,4.084-2.041a.818.818,0,0,1,.731,0l8.182,4.091A.809.809,0,0,1,20,6.91v8.182a.818.818,0,0,1-.452.732L11.374,19.91A.828.828,0,0,1,11.01,20a.817.817,0,0,1-.383-.091L2.452,15.824A.818.818,0,0,1,2,15.092V6.91a.809.809,0,0,1,.452-.732L6.535,4.136Zm7.738,6.142-2.455,1.227v6.352l6.545-3.273V8.234L15.909,9.461v2.767a.818.818,0,0,1-1.636,0Zm-7.364-4.5L4.648,6.91,11,10.086l2.261-1.131Zm1.829-.915L15.091,8.04,17.352,6.91,11,3.734Zm-5.1,9.722,6.545,3.273V11.506L3.636,8.234Z" transform="translate(-18667 1433.999)"/>
</svg>
