<svg xmlns="http://www.w3.org/2000/svg" viewBox="-10173 -2473 22 22">
  <defs>
    <style>
      .cls-1 {
        fill: #1380f6;
      }
    </style>
  </defs>
  <path id="bubble-rounded-2" class="cls-1" d="M23.607,21.3a1.813,1.813,0,0,1-2.3,2.3l-3.278-.819a10.995,10.995,0,1,1,4.761-4.761l.82,3.278Zm-2.854-3.168a1,1,0,0,1,.1-.733A9,9,0,1,0,17.4,20.851a1,1,0,0,1,.733-.1l3.49.872ZM8.5,12a1,1,0,0,1,0-2h9a1,1,0,0,1,0,2Zm0,4a1,1,0,0,1,0-2h6a1,1,0,0,1,0,2Z" transform="translate(-10175 -2475)"/>
</svg>
