<svg xmlns="http://www.w3.org/2000/svg" viewBox="-17993.002 3285 20.002 19.998">
  <defs>
    <style>
      .cls-1 {
        fill: #868e96;
      }
    </style>
  </defs>
  <path id="Subtraction_9" data-name="Subtraction 9" class="cls-1" d="M19607-3061a10.013,10.013,0,0,1-10-10,10.013,10.013,0,0,1,10-10,9.933,9.933,0,0,1,7.07,2.928A9.94,9.94,0,0,1,19617-3071a9.939,9.939,0,0,1-2.928,7.071A9.933,9.933,0,0,1,19607-3061Zm0-8.586h0l2.83,2.83,1.408-1.413-2.826-2.831,2.826-2.831-1.408-1.413-2.83,2.831-2.836-2.831-1.408,1.413,2.83,2.831-2.83,2.831,1.412,1.413,2.832-2.83Z" transform="translate(-37590 6366)"/>
</svg>
