<svg xmlns="http://www.w3.org/2000/svg" viewBox="-18703 1436 18 18">
  <defs>
    <style>
      .cls-1 {
        fill: #fff;
      }
    </style>
  </defs>
  <path id="Combined-Shape" class="cls-1" d="M6.091,6.091h0V4.045A2.047,2.047,0,0,1,8.136,2h9.818A2.047,2.047,0,0,1,20,4.045v9.818a2.047,2.047,0,0,1-2.045,2.045H15.909v2.045A2.047,2.047,0,0,1,13.864,20H4.045A2.047,2.047,0,0,1,2,17.955V8.136A2.047,2.047,0,0,1,4.045,6.091Zm0,1.636H4.045a.41.41,0,0,0-.409.409v9.818a.41.41,0,0,0,.409.409h9.818a.41.41,0,0,0,.409-.409V15.909H8.136a2.047,2.047,0,0,1-2.045-2.045ZM7.727,4.045v9.818a.41.41,0,0,0,.409.409h9.818a.41.41,0,0,0,.409-.409V4.045a.41.41,0,0,0-.409-.409H8.136A.41.41,0,0,0,7.727,4.045Z" transform="translate(-18705 1434)"/>
</svg>
