<svg xmlns="http://www.w3.org/2000/svg" viewBox="-18779 1436 18 17.999">
  <defs>
    <style>
      .cls-1 {
        fill: #fff;
      }
    </style>
  </defs>
  <path id="Combined-Shape" class="cls-1" d="M2,4.089A2.086,2.086,0,0,1,4.089,2H8.3a4.327,4.327,0,0,1,2.744,1.134l8.344,8.344a2.086,2.086,0,0,1,0,2.949l-4.961,4.961a2.088,2.088,0,0,1-2.949,0L3.134,11.047A4.308,4.308,0,0,1,2,8.3Zm1.636,0V8.3A2.713,2.713,0,0,0,4.292,9.89l8.344,8.344a.452.452,0,0,0,.635,0l4.961-4.961a.45.45,0,0,0,0-.635L9.89,4.292A2.736,2.736,0,0,0,8.3,3.636H4.089A.45.45,0,0,0,3.636,4.089ZM6.5,7.727A1.227,1.227,0,1,1,7.727,6.5,1.227,1.227,0,0,1,6.5,7.727Z" transform="translate(-18781 1434)"/>
</svg>
