<svg xmlns="http://www.w3.org/2000/svg" viewBox="-15254 -3963 18 18">
  <path id="dollar-2" d="M11,20a9,9,0,1,1,9-9A9,9,0,0,1,11,20Zm0-1.636A7.364,7.364,0,1,0,3.636,11,7.364,7.364,0,0,0,11,18.364Zm.818-2.965v.92a.818.818,0,1,1-1.636,0v-.912a3.694,3.694,0,0,1-1.118-.47,3.306,3.306,0,0,1-.725-.594.818.818,0,1,1,1.232-1.077,1.776,1.776,0,0,0,.361.284A1.985,1.985,0,0,0,11,13.864c.769,0,1.271-.456,1.228-.85-.04-.37-.382-.655-1.471-1.219l-.13-.068-.014-.007-.116-.06c-1.588-.823-2.22-1.35-2.344-2.494A2.478,2.478,0,0,1,10.182,6.6v-.92a.818.818,0,1,1,1.636,0v.912a3.694,3.694,0,0,1,1.118.47,3.306,3.306,0,0,1,.725.594.818.818,0,1,1-1.232,1.077,1.776,1.776,0,0,0-.361-.284A1.985,1.985,0,0,0,11,8.136c-.769,0-1.271.456-1.229.85.041.37.382.655,1.471,1.219l.261.135c1.588.824,2.22,1.351,2.344,2.495A2.478,2.478,0,0,1,11.818,15.4Z" transform="translate(-15256 -3965)"/>
</svg>
