<svg xmlns="http://www.w3.org/2000/svg" viewBox="-19917 -18825 18 18">
  <defs>
    <style>
      .cls-1 {
        opacity: 0.45;
      }
    </style>
  </defs>
  <path id="edit-write" class="cls-1" d="M13.659,6.225,3.636,16.248v2.116H5.752L15.775,8.341Zm1.157-1.157,2.116,2.116,1.093-1.093L15.909,3.975ZM16.488,2.24,19.76,5.513a.818.818,0,0,1,0,1.157L6.669,19.761a.818.818,0,0,1-.578.24H2.818A.818.818,0,0,1,2,19.182V15.909a.818.818,0,0,1,.24-.578L15.331,2.24a.818.818,0,0,1,1.157,0Zm2.694,16.124a.818.818,0,0,1,0,1.636H11a.818.818,0,0,1,0-1.636Z" transform="translate(-19919 -18827)"/>
</svg>
