<svg xmlns="http://www.w3.org/2000/svg" viewBox="-19493 -14512 18 18">
  <path id="envelope-open-message" d="M3.45,6.395l1-.6V4.044A2.046,2.046,0,0,1,6.5,2h9a2.042,2.042,0,0,1,2.044,2.044V5.792l1,.6A3.205,3.205,0,0,1,20,8.952v9A2.045,2.045,0,0,1,17.952,20H4.048A2.048,2.048,0,0,1,2,17.956V8.931A3.216,3.216,0,0,1,3.45,6.394Zm1,1.305-.162.1a1.607,1.607,0,0,0-.656,1.151v.418a1.6,1.6,0,0,0,.656,1.154l.162.1Zm13.091,0v2.918l.162-.1a1.606,1.606,0,0,0,.656-1.154V8.948A1.607,1.607,0,0,0,17.708,7.8Zm.818,4.335L11.421,16.2a.818.818,0,0,1-.843,0L3.636,12.035v5.921a.412.412,0,0,0,.412.407h13.9a.409.409,0,0,0,.412-.407V12.035ZM15.909,4.044a.406.406,0,0,0-.407-.407h-9a.41.41,0,0,0-.407.407V11.6L11,14.546,15.909,11.6ZM8.545,7.727a.818.818,0,1,1,0-1.636h4.909a.818.818,0,0,1,0,1.636Zm0,2.455a.818.818,0,1,1,0-1.636h4.909a.818.818,0,1,1,0,1.636Z" transform="translate(-19495 -14514)"/>
</svg>
