<svg xmlns="http://www.w3.org/2000/svg" viewBox="-18755 -2266 18 13.091">
  <defs>
    <style>
      .cls-1 {
        fill: #fff;
      }
    </style>
  </defs>
  <path id="envelope" class="cls-1" d="M2,10.044A2.045,2.045,0,0,1,4.048,8h13.9A2.048,2.048,0,0,1,20,10.044v9a2.045,2.045,0,0,1-2.048,2.044H4.048A2.048,2.048,0,0,1,2,19.047Zm16.364,3.082-6.942,4.166a.818.818,0,0,1-.843,0L3.636,13.126v5.921a.412.412,0,0,0,.412.407h13.9a.409.409,0,0,0,.412-.407V13.126Zm-.656-1.515a1.6,1.6,0,0,0,.656-1.154v-.413a.408.408,0,0,0-.407-.408H4.043a.408.408,0,0,0-.407.408v.413a1.6,1.6,0,0,0,.656,1.154L11,15.637Z" transform="translate(-18757 -2274)"/>
</svg>
