<svg xmlns="http://www.w3.org/2000/svg" viewBox="-10110 -8626 16 16">
  <defs>
    <style>
      .cls-1 {
        fill: #f03e3e;
      }
    </style>
  </defs>
  <path id="error-3" class="cls-1" d="M10,18a8,8,0,1,1,8-8A8,8,0,0,1,10,18Zm0-1.455A6.545,6.545,0,1,0,3.455,10,6.546,6.546,0,0,0,10,16.545Zm0-7.574,2.395-2.395a.727.727,0,1,1,1.028,1.028L11.028,10l2.395,2.395a.727.727,0,1,1-1.028,1.028L10,11.028,7.605,13.423a.727.727,0,1,1-1.028-1.028L8.972,10,6.577,7.605A.727.727,0,1,1,7.605,6.577Z" transform="translate(-10112 -8628)"/>
</svg>
