<svg xmlns="http://www.w3.org/2000/svg" viewBox="-18741 1438 18 14.709">
  <defs>
    <style>
      .cls-1 {
        fill: #fff;
      }
    </style>
  </defs>
  <path id="folder-5" class="cls-1" d="M18.327,10.909A1.742,1.742,0,0,1,19.92,13.1l-1.337,5.777a2.429,2.429,0,0,1-2.3,1.83H5.659a2.431,2.431,0,0,1-2.3-1.83L2.024,13.1a1.743,1.743,0,0,1,1.593-2.193V8.041A2.043,2.043,0,0,1,5.661,6h4a.817.817,0,0,1,.68.364l1.065,1.6h4.87a2.047,2.047,0,0,1,2.047,2.044ZM16.692,10.9V10A.412.412,0,0,0,16.28,9.6H10.972a.817.817,0,0,1-.68-.364l-1.065-1.6H5.661a.409.409,0,0,0-.409.407V10.9h11.44ZM4.954,18.511a.806.806,0,0,0,.705.564H16.285a.8.8,0,0,0,.705-.564l1.337-5.778c.034-.15,0-.2-.153-.2H3.77c-.15,0-.187.047-.153.2L4.954,18.51Z" transform="translate(-18742.972 1432)"/>
</svg>
