<svg xmlns="http://www.w3.org/2000/svg" viewBox="-15254 -4107 18 18">
  <path id="home" d="M9.364,19.182A.818.818,0,0,1,8.545,20h-4.5A2.043,2.043,0,0,1,2,17.952V11A3.817,3.817,0,0,1,3.223,8.355l7.247-6.16a.818.818,0,0,1,1.06,0l7.247,6.16A3.816,3.816,0,0,1,20,11v6.955A2.045,2.045,0,0,1,17.954,20h-4.5a.818.818,0,0,1-.818-.818V14.273H9.364Zm8.59-.818a.408.408,0,0,0,.409-.412V11a2.215,2.215,0,0,0-.646-1.4L11,3.892,4.283,9.6A2.222,2.222,0,0,0,3.636,11v6.955a.407.407,0,0,0,.407.412H7.727V13.455a.818.818,0,0,1,.818-.818h4.909a.818.818,0,0,1,.818.818v4.909Z" transform="translate(-15256 -4109)"/>
</svg>
