<svg xmlns="http://www.w3.org/2000/svg" viewBox="-20982 3029.62 24 10.76">
  <defs>
    <style>
      .cls-1 {
        fill: #1380f6;
      }
    </style>
  </defs>
  <path id="Path_2358" data-name="Path 2358" class="cls-1" d="M18.6,6.62a5.331,5.331,0,0,0-3.77,1.53L7.8,14.39A3.386,3.386,0,1,1,5.4,8.62,3.4,3.4,0,0,1,7.84,9.65l1.13,1,1.51-1.34L9.22,8.2a5.38,5.38,0,1,0-.05,7.65L16.2,9.61a3.386,3.386,0,1,1,2.4,5.77,3.416,3.416,0,0,1-2.44-1.03l-1.14-1.01-1.51,1.34,1.27,1.12A5.389,5.389,0,1,0,18.6,6.62Z" transform="translate(-20982 3023)"/>
</svg>
