<svg xmlns="http://www.w3.org/2000/svg" viewBox="-10173 -2891 44 44">
  <defs>
    <style>
      .cls-1 {
        fill: #8dc5fb;
      }
    </style>
  </defs>
  <path id="info-2" class="cls-1" d="M24,46A22,22,0,1,1,46,24,22,22,0,0,1,24,46Zm0-4A18,18,0,1,0,6,24,18,18,0,0,0,24,42Zm0-4a2,2,0,1,1,2-2A2,2,0,0,1,24,38Zm2-8.918a2,2,0,1,1-4-.164,7.92,7.92,0,0,1,.752-2.98,5.661,5.661,0,0,1,2.8-2.867C27.634,22.134,29,20.3,29,19a5,5,0,0,0-10,0,2,2,0,0,1-4,0,9,9,0,0,1,18,0c0,2.992-2.372,6.172-5.8,7.717a1.76,1.76,0,0,0-.827.92,4.29,4.29,0,0,0-.32,1.033,3.6,3.6,0,0,0-.057.412Z" transform="translate(-10175 -2893)"/>
</svg>
