<svg xmlns="http://www.w3.org/2000/svg" viewBox="-20480 -8780 13.908 18">
  <defs>
    <style>
      .cls-1 {
        fill: #fff;
      }
    </style>
  </defs>
  <path id="Combined-Shape" class="cls-1" d="M9.045,9.364V6.909a4.909,4.909,0,1,1,9.818,0,.818.818,0,0,1-1.636,0,3.273,3.273,0,1,0-6.545,0V9.364h8.182a2.046,2.046,0,0,1,2.045,2.046v6.544A2.047,2.047,0,0,1,18.864,20H9.045A2.046,2.046,0,0,1,7,17.954V11.41A2.047,2.047,0,0,1,9.045,9.364ZM8.636,11.41v6.544a.409.409,0,0,0,.409.41h9.818a.41.41,0,0,0,.409-.41V11.41a.409.409,0,0,0-.409-.41H9.045A.41.41,0,0,0,8.636,11.41Z" transform="translate(-20487 -8782)"/>
</svg>
