<svg xmlns="http://www.w3.org/2000/svg" viewBox="-11893 -8762 16 16">
  <defs>
    <style>
      .cls-1 {
        fill: #fff;
      }
    </style>
  </defs>
  <path id="mail-at" class="cls-1" d="M12.916,12.738a4,4,0,1,1-.352-5.809A.727.727,0,0,1,14,7.091v4.364a1.194,1.194,0,0,0,1.273,1.091,1.194,1.194,0,0,0,1.273-1.091V10A6.545,6.545,0,1,0,10,16.545.727.727,0,1,1,10,18a8,8,0,1,1,8-8v1.455A2.64,2.64,0,0,1,15.273,14,2.771,2.771,0,0,1,12.916,12.738ZM10,12.545A2.545,2.545,0,1,0,7.455,10,2.545,2.545,0,0,0,10,12.545Z" transform="translate(-11895 -8764)"/>
</svg>
