<svg xmlns="http://www.w3.org/2000/svg" viewBox="-10173 -2807 22 22">
  <defs>
    <style>
      .cls-1 {
        fill: #1380f6;
      }
    </style>
  </defs>
  <path id="Combined-Shape" class="cls-1" d="M19.842,9.512a7,7,0,0,0-13.683,0A1,1,0,0,1,7,10.5v5a1,1,0,0,1-1,1H4.5A2.5,2.5,0,0,1,2,14V12A2.5,2.5,0,0,1,4.12,9.529a9,9,0,0,1,17.761,0A2.5,2.5,0,0,1,24,12v2a2.5,2.5,0,0,1-2.351,2.5,9.014,9.014,0,0,1-6.822,6.319,2,2,0,1,1-.217-2,7.014,7.014,0,0,0,4.965-4.408A1,1,0,0,1,19,15.5v-5a1,1,0,0,1,.842-.988ZM4.5,11.5A.5.5,0,0,0,4,12v2a.5.5,0,0,0,.5.5H5v-3Zm16.5,0v3h.5A.5.5,0,0,0,22,14V12a.5.5,0,0,0-.5-.5Z" transform="translate(-10175 -2809)"/>
</svg>
