<svg xmlns="http://www.w3.org/2000/svg" viewBox="-12463 -9097 18 18">
  <path id="Combined-Shape" d="M6.366,6.091h0A2.864,2.864,0,0,1,11.3,3.216a2.456,2.456,0,0,1,3.654,2.875h3A2.048,2.048,0,0,1,20,8.136V9.773a2.046,2.046,0,0,1-1.636,2v6.18A2.042,2.042,0,0,1,16.32,20H5.68a2.044,2.044,0,0,1-2.044-2.043v-6.18A2.049,2.049,0,0,1,2,9.773V8.136A2.046,2.046,0,0,1,4.048,6.091ZM3.636,8.133V9.776a.409.409,0,0,0,.409.405h6.136V7.727H4.046A.406.406,0,0,0,3.636,8.133Zm8.182-.405v2.455h6.136a.406.406,0,0,0,.409-.405V8.133a.409.409,0,0,0-.409-.405ZM5.273,11.818v6.167a.41.41,0,0,0,.41.412h4.5V11.818Zm6.545,0V18.4h4.5a.413.413,0,0,0,.41-.412V11.818Zm0-5.727h.818a.818.818,0,1,0-.818-.818Zm-1.636,0V4.864A1.227,1.227,0,1,0,8.955,6.091Z" transform="translate(-12465 -9099)"/>
</svg>
