<svg xmlns="http://www.w3.org/2000/svg" viewBox="-15254.001 -3867 18 18">
  <path id="rocket" d="M9.291,7,11.326,4.29A6.328,6.328,0,0,1,15.906,2h3.273A.818.818,0,0,1,20,2.818V6.091a6.333,6.333,0,0,1-2.291,4.58l-2.712,2.034-.729,6.565a.818.818,0,0,1-1.392.488L9.745,16.631a.818.818,0,0,1-.962-.144L5.511,13.214a.818.818,0,0,1-.144-.962L2.238,9.123a.818.818,0,0,1,.488-1.392L9.292,7Zm1.784,8.644L12.827,17.4l.372-3.345ZM6.351,10.923,7.944,8.8,4.6,9.171l1.752,1.752ZM16.725,9.363a4.73,4.73,0,0,0,1.636-3.272V3.636H15.906a4.721,4.721,0,0,0-3.271,1.636L7.169,12.558l2.269,2.269ZM2,17.545A2.454,2.454,0,1,1,4.453,20H2.817A.818.818,0,0,1,2,19.181Zm1.636.818h.818a.818.818,0,1,0-.818-.818Z" transform="translate(-15255.998 -3869)"/>
</svg>
