<svg xmlns="http://www.w3.org/2000/svg" viewBox="-21285 -7141 15.273 16">
  <defs>
    <style>
      .cls-1 {
        fill: #1380f6;
      }
    </style>
  </defs>
  <path id="Combined-Shape" class="cls-1" d="M8.064,3.821A1.829,1.829,0,0,1,9.9,2h1.476a1.827,1.827,0,0,1,1.834,1.821v.5a6.276,6.276,0,0,1,1.143.632l.433-.247a1.846,1.846,0,0,1,2.5.663l.738,1.259a1.81,1.81,0,0,1-.675,2.491l-.384.218a6.183,6.183,0,0,1,0,1.329l.384.218a1.81,1.81,0,0,1,.675,2.491l-.738,1.259a1.846,1.846,0,0,1-2.5.663l-.433-.247a6.276,6.276,0,0,1-1.143.632v.5A1.829,1.829,0,0,1,11.374,18H9.9a1.827,1.827,0,0,1-1.834-1.821v-.588a6.277,6.277,0,0,1-1.029-.606l-.547.311a1.846,1.846,0,0,1-2.5-.663l-.738-1.259a1.81,1.81,0,0,1,.675-2.491l.578-.329q-.025-.275-.025-.554T4.5,9.446l-.578-.329a1.81,1.81,0,0,1-.675-2.491l.738-1.259a1.846,1.846,0,0,1,2.5-.663l.547.311a6.277,6.277,0,0,1,1.029-.606ZM9.518,4.893a.727.727,0,0,1-.475.682,4.823,4.823,0,0,0-1.469.866.727.727,0,0,1-.834.081l-.972-.553a.391.391,0,0,0-.527.134L4.5,7.361a.356.356,0,0,0,.139.492l1,.571A.727.727,0,0,1,6,9.182a4.709,4.709,0,0,0,0,1.635.727.727,0,0,1-.356.759l-1,.571a.356.356,0,0,0-.139.492L5.241,13.9a.391.391,0,0,0,.527.134l.972-.553a.727.727,0,0,1,.834.081,4.823,4.823,0,0,0,1.469.866.727.727,0,0,1,.475.682v1.072a.372.372,0,0,0,.38.366h1.476a.374.374,0,0,0,.38-.366v-1a.727.727,0,0,1,.5-.691,4.822,4.822,0,0,0,1.575-.867.727.727,0,0,1,.823-.072l.85.484a.391.391,0,0,0,.527-.134l.738-1.259a.355.355,0,0,0-.139-.492l-.818-.465a.727.727,0,0,1-.354-.773,4.7,4.7,0,0,0,0-1.817.727.727,0,0,1,.354-.773l.818-.465a.355.355,0,0,0,.139-.492L16.031,6.1a.391.391,0,0,0-.527-.134l-.85.484a.727.727,0,0,1-.823-.072,4.822,4.822,0,0,0-1.575-.867.727.727,0,0,1-.5-.691v-1a.372.372,0,0,0-.38-.366H9.9a.374.374,0,0,0-.38.366Zm1.118,7.653A2.545,2.545,0,1,1,13.181,10,2.545,2.545,0,0,1,10.636,12.545Zm0-1.455A1.091,1.091,0,1,0,9.545,10,1.091,1.091,0,0,0,10.636,11.091Z" transform="translate(-21288 -7143)"/>
</svg>
