<svg xmlns="http://www.w3.org/2000/svg" viewBox="-19493 -14560 18 18">
  <path id="Combined-Shape" d="M2,4.048A2.047,2.047,0,0,1,4.048,2h13.9A2.047,2.047,0,0,1,20,4.048v13.9A2.047,2.047,0,0,1,17.952,20H4.048A2.047,2.047,0,0,1,2,17.952Zm1.636,0v13.9a.411.411,0,0,0,.412.412h13.9a.411.411,0,0,0,.412-.412V4.048a.411.411,0,0,0-.412-.412H4.048A.411.411,0,0,0,3.636,4.048ZM13.864,5.273a.818.818,0,0,1,1.636,0V7.318a4.5,4.5,0,1,1-9,0V5.273a.818.818,0,0,1,1.636,0V7.318a2.864,2.864,0,1,0,5.727,0Z" transform="translate(-19495 -14562)"/>
</svg>
