<svg xmlns="http://www.w3.org/2000/svg" viewBox="-18366 -13657 14.727 18">
  <defs>
    <style>
      .cls-1 {
        fill: #1380f6;
      }
    </style>
  </defs>
  <path id="Combined-Shape" class="cls-1" d="M7.184,19.913A.818.818,0,0,1,6,19.181V4.048A2.044,2.044,0,0,1,8.044,2H18.683a2.045,2.045,0,0,1,2.044,2.048V19.181a.818.818,0,0,1-1.184.732l-1.27-.635L17,19.913a.818.818,0,0,1-.732,0L15,19.277l-1.27.635a.818.818,0,0,1-.732,0l-1.27-.635-1.27.635a.818.818,0,0,1-.732,0l-1.27-.635ZM19.09,4.048a.409.409,0,0,0-.407-.412H8.044a.408.408,0,0,0-.407.412V17.857l.452-.226a.818.818,0,0,1,.732,0l1.27.635,1.27-.635a.818.818,0,0,1,.732,0l1.27.635,1.27-.635a.818.818,0,0,1,.732,0l1.27.635,1.27-.635a.818.818,0,0,1,.732,0l.452.226ZM10.5,7.727a.818.818,0,0,1,0-1.636h5.727a.818.818,0,1,1,0,1.636Zm0,2.863a.818.818,0,0,1,0-1.636h5.727a.818.818,0,1,1,0,1.636Zm0,2.863a.818.818,0,0,1,0-1.636h3.273a.818.818,0,0,1,0,1.636Z" transform="translate(-18372 -13659)"/>
</svg>
