<svg xmlns="http://www.w3.org/2000/svg" viewBox="-19741 -15877 18 18">
  <defs>
    <style>
      .cls-1 {
        opacity: 0.45;
      }
    </style>
  </defs>
  <path id="chart-2" class="cls-1" d="M16.727,4.048v13.9a.41.41,0,0,0,.41.412h.817a.41.41,0,0,0,.41-.412V4.048a.41.41,0,0,0-.41-.412h-.817A.41.41,0,0,0,16.727,4.048Zm-1.636,0A2.046,2.046,0,0,1,17.137,2h.817A2.046,2.046,0,0,1,20,4.048v13.9A2.046,2.046,0,0,1,17.954,20h-.817a2.046,2.046,0,0,1-2.046-2.048ZM2,8.953A2.044,2.044,0,0,1,4.046,6.909h.817A2.047,2.047,0,0,1,6.909,8.953v9A2.044,2.044,0,0,1,4.863,20H4.046A2.047,2.047,0,0,1,2,17.956v-9Zm1.636,0v9a.411.411,0,0,0,.41.407h.817a.407.407,0,0,0,.41-.407v-9a.411.411,0,0,0-.41-.407H4.046a.407.407,0,0,0-.41.407Zm4.909,4.914a2.046,2.046,0,0,1,2.046-2.049h.817a2.045,2.045,0,0,1,2.046,2.05V17.95A2.046,2.046,0,0,1,11.408,20h-.817a2.045,2.045,0,0,1-2.046-2.05V13.868Zm1.636,0v4.084a.409.409,0,0,0,.41.413h.817a.41.41,0,0,0,.41-.413V13.868a.409.409,0,0,0-.41-.413h-.817a.41.41,0,0,0-.41.413Z" transform="translate(-19743 -15879)"/>
</svg>
