<svg xmlns="http://www.w3.org/2000/svg" viewBox="-15254 -3614 18 18">
  <path id="support-1" d="M15.013,19.058a9.018,9.018,0,0,1-8.026,0,1.928,1.928,0,0,1-2.067-.469L3.411,17.08a1.93,1.93,0,0,1-.469-2.067,9.02,9.02,0,0,1,0-8.03A1.923,1.923,0,0,1,3.411,4.92L4.92,3.412a1.923,1.923,0,0,1,2.063-.468,9.018,9.018,0,0,1,8.035,0,1.924,1.924,0,0,1,2.063.468L18.588,4.92a1.922,1.922,0,0,1,.468,2.063,9.018,9.018,0,0,1,0,8.03,1.93,1.93,0,0,1-.47,2.067L17.08,18.589a1.929,1.929,0,0,1-2.067.469ZM8.257,4.164,9.445,5.858l.033.045a5.354,5.354,0,0,1,3.044,0l.021-.029,1.2-1.709a7.393,7.393,0,0,0-5.486,0Zm0,13.672a7.393,7.393,0,0,0,5.486,0l-1.2-1.709-.021-.029a5.355,5.355,0,0,1-3.044,0l-.033.045L8.257,17.836Zm9.579-9.579L16.143,9.445l-.046.033a5.355,5.355,0,0,1,0,3.044l.029.021,1.71,1.2a7.393,7.393,0,0,0,0-5.486Zm-13.672,0a7.392,7.392,0,0,0,0,5.486l1.71-1.2.029-.021a5.355,5.355,0,0,1,0-3.044l-.045-.033L4.164,8.257Zm.4,7.666,1.508,1.508a.29.29,0,0,0,.479-.02l1.573-2.241a.251.251,0,0,0-.023-.277l-1-1a.252.252,0,0,0-.293-.011L4.6,15.437a.294.294,0,0,0-.03.486Zm9.3-9.094a.249.249,0,0,0,.023.277l1,1a.255.255,0,0,0,.293.011L17.4,6.567a.3.3,0,0,0,.036-.49L15.923,4.569a.294.294,0,0,0-.486.03L13.871,6.83ZM6.83,8.129a.249.249,0,0,0,.277-.023l1-1a.255.255,0,0,0,.011-.293L6.567,4.605a.3.3,0,0,0-.49-.036L4.569,6.077a.294.294,0,0,0,.03.486L6.83,8.129Zm9.093,9.3,1.509-1.509a.29.29,0,0,0-.02-.479l-2.241-1.573a.251.251,0,0,0-.277.023l-1,1a.252.252,0,0,0-.011.293L15.437,17.4a.294.294,0,0,0,.486.03ZM12.3,14.445a1.811,1.811,0,0,1,.435-.709l1-1a1.816,1.816,0,0,1,.709-.436,3.7,3.7,0,0,0,0-2.6,1.809,1.809,0,0,1-.709-.435l-1-1a1.818,1.818,0,0,1-.436-.71,3.7,3.7,0,0,0-2.6,0,1.809,1.809,0,0,1-.435.709l-1,1a1.818,1.818,0,0,1-.709.436,3.695,3.695,0,0,0,0,2.6,1.805,1.805,0,0,1,.708.435l1,1a1.816,1.816,0,0,1,.436.709,3.7,3.7,0,0,0,2.6,0Z" transform="translate(-15256 -3616)"/>
</svg>
