<svg xmlns="http://www.w3.org/2000/svg" viewBox="-14287 -10098 22 19.155">
  <defs>
    <style>
      .cls-1 {
        fill: #fff;
      }
    </style>
  </defs>
  <path id="XMLID_497_" class="cls-1" d="M.389,28.585l5.069,1.892,1.962,6.31a.6.6,0,0,0,.948.285l2.826-2.3a.843.843,0,0,1,1.028-.029l5.1,3.7a.6.6,0,0,0,.936-.361l3.733-17.959a.6.6,0,0,0-.8-.679L.383,27.467A.6.6,0,0,0,.389,28.585ZM7.1,29.47l9.907-6.1a.173.173,0,0,1,.208.273l-8.176,7.6a1.7,1.7,0,0,0-.525,1.014L8.239,34.32a.256.256,0,0,1-.5.036L6.668,30.592A1,1,0,0,1,7.1,29.47Z" transform="translate(-14287 -10117.401)"/>
</svg>
