<svg xmlns="http://www.w3.org/2000/svg" viewBox="-19493 -14461 18 12.8">
  <path id="Combined-Shape" d="M14.747,19.6a1.635,1.635,0,0,1-1.585,1.2H3.638A1.624,1.624,0,0,1,2,19.192l0-.059c0-.061.013-.163.026-.292.022-.216.048-.433.079-.638a3.55,3.55,0,0,1,.251-.971C2.84,16.226,6.09,14.892,8.4,14.892a10.671,10.671,0,0,1,3.567.738A7.892,7.892,0,0,1,15.2,14.8c1.732,0,4.141,1.027,4.527,1.865a2.858,2.858,0,0,1,.194.773c.023.156.042.32.058.483.009.1.016.175.019.222l0,.057a1.4,1.4,0,0,1-1.4,1.4Zm-.889-2.992a1.882,1.882,0,0,1,.583.623,3.022,3.022,0,0,1,.218.769h3.72c-.012-.114-.025-.226-.041-.329s-.034-.205-.047-.266c-.038-.029-.088-.064-.146-.1a5.423,5.423,0,0,0-.778-.4,5.787,5.787,0,0,0-2.166-.5,5,5,0,0,0-1.342.208ZM15.2,14a2.4,2.4,0,1,1,2.4-2.4A2.4,2.4,0,0,1,15.2,14Zm0-1.6a.8.8,0,1,0-.8-.8A.8.8,0,0,0,15.2,12.4ZM8.4,13.908a2.954,2.954,0,1,1,2.954-2.954A2.954,2.954,0,0,1,8.4,13.908Zm0-1.6a1.354,1.354,0,1,0-1.354-1.354A1.354,1.354,0,0,0,8.4,12.308Zm4.608,5.661a2.67,2.67,0,0,0-.3-.21,8.036,8.036,0,0,0-1.139-.565,8.717,8.717,0,0,0-3.169-.7,8.717,8.717,0,0,0-3.169.7,8.035,8.035,0,0,0-1.139.565,2.667,2.667,0,0,0-.3.21l-.009.008a4.2,4.2,0,0,0-.093.467c-.027.175-.05.366-.069.557-.008.077-.014.143-.018.192a.082.082,0,0,0,.036.008h9.523a.082.082,0,0,0,.036-.008c0-.049-.01-.114-.018-.192-.019-.191-.042-.382-.069-.557a4.208,4.208,0,0,0-.093-.467Z" transform="translate(-19495 -14469)"/>
</svg>
