<svg xmlns="http://www.w3.org/2000/svg" viewBox="-19493 -14656 18 18">
  <defs>
    <style>
      .cls-1 {
        fill: #1380f6;
      }
    </style>
  </defs>
  <path id="user" class="cls-1" d="M11,11a4.5,4.5,0,1,1,4.5-4.5A4.5,4.5,0,0,1,11,11Zm0-1.636A2.864,2.864,0,1,0,8.136,6.5,2.864,2.864,0,0,0,11,9.364Zm8.516,5.794a5.269,5.269,0,0,1,.331,1.357q.091.627.141,1.259L20,17.9l0,.058A2.045,2.045,0,0,1,17.957,20H4.043A2.045,2.045,0,0,1,2,17.955L2,17.9l.009-.122q.052-.631.141-1.259a5.269,5.269,0,0,1,.331-1.357c.629-1.365,5.258-3.34,8.516-3.34S18.887,13.793,19.516,15.158Zm-1.57.623a4.211,4.211,0,0,0-.481-.351,11.892,11.892,0,0,0-1.714-.886A12.622,12.622,0,0,0,11,13.455a12.623,12.623,0,0,0-4.752,1.091,11.892,11.892,0,0,0-1.714.886,4.249,4.249,0,0,0-.481.351,1.242,1.242,0,0,0-.1.094,5.111,5.111,0,0,0-.185.878c-.041.274-.075.57-.1.867-.015.153-.025.277-.031.356a.409.409,0,0,0,.406.387H17.957a.409.409,0,0,0,.406-.387c-.006-.08-.016-.2-.031-.356q-.041-.435-.1-.868a5.111,5.111,0,0,0-.185-.878,1.163,1.163,0,0,0-.1-.094Z" transform="translate(-19495 -14658)"/>
</svg>
