<svg xmlns="http://www.w3.org/2000/svg" viewBox="-14287 -10237 24 24.807">
  <defs>
    <style>
      .cls-1 {
        fill: #fff;
      }
    </style>
  </defs>
  <g id="Group_1333" data-name="Group 1333" transform="translate(-14287 -10237)">
    <path id="Path_1324" data-name="Path 1324" class="cls-1" d="M100.449,77.88l-.007-.029a8.274,8.274,0,0,0-5.586-5.375l-.027-.006a31.044,31.044,0,0,0-11.685,0l-.028.006a8.277,8.277,0,0,0-5.586,5.375l-.006.029a22.871,22.871,0,0,0,0,9.853l.006.029a8.345,8.345,0,0,0,5.279,5.3V95.67a1.05,1.05,0,0,0,1.808.728l2.647-2.752c.574.032,1.149.05,1.723.05a31.144,31.144,0,0,0,5.843-.554l.027-.006a8.274,8.274,0,0,0,5.586-5.375l.007-.029A22.871,22.871,0,0,0,100.449,77.88Zm-2.095,9.379a6.258,6.258,0,0,1-3.943,3.776,28.936,28.936,0,0,1-6.215.5.147.147,0,0,0-.11.044l-1.933,1.984L84.1,95.675a.241.241,0,0,1-.414-.166V91.181a.149.149,0,0,0-.121-.146h0a6.26,6.26,0,0,1-3.943-3.776,20.755,20.755,0,0,1,0-8.9,6.26,6.26,0,0,1,3.943-3.776,28.912,28.912,0,0,1,10.851,0,6.256,6.256,0,0,1,3.943,3.776A20.733,20.733,0,0,1,98.354,87.258Z" transform="translate(-76.986 -71.916)"/>
    <path id="Path_1325" data-name="Path 1325" class="cls-1" d="M158.985,151.951c-.242-.073-.473-.123-.687-.212a15.608,15.608,0,0,1-5.882-3.931,15.265,15.265,0,0,1-2.25-3.443c-.289-.587-.532-1.2-.78-1.8a1.564,1.564,0,0,1,.458-1.54,3.616,3.616,0,0,1,1.212-.91.778.778,0,0,1,.973.231,12.546,12.546,0,0,1,1.505,2.106,1,1,0,0,1-.281,1.358c-.114.077-.218.168-.324.256a1.06,1.06,0,0,0-.244.258.706.706,0,0,0-.047.62,5.61,5.61,0,0,0,3.15,3.488,1.6,1.6,0,0,0,.807.2c.494-.058.653-.6,1-.882a.942.942,0,0,1,1.134-.05c.364.23.717.478,1.068.728a12.228,12.228,0,0,1,1.005.765.8.8,0,0,1,.239.987,3.338,3.338,0,0,1-1.434,1.58,3.461,3.461,0,0,1-.62.2C158.743,151.877,159.2,151.886,158.985,151.951Z" transform="translate(-143.559 -134.61)"/>
    <path id="Path_1326" data-name="Path 1326" class="cls-1" d="M221.882,131.457a5.9,5.9,0,0,1,5.8,4.88c.087.489.118.989.157,1.486a.348.348,0,0,1-.327.41c-.233,0-.338-.192-.353-.4-.03-.413-.051-.828-.108-1.238a5.189,5.189,0,0,0-4.179-4.337c-.324-.058-.656-.073-.984-.107-.208-.022-.479-.034-.525-.292a.354.354,0,0,1,.35-.4c.056,0,.112,0,.169,0C224.787,131.538,221.826,131.457,221.882,131.457Z" transform="translate(-209.876 -126.72)"/>
    <path id="Path_1327" data-name="Path 1327" class="cls-1" d="M232.469,155.142a1.332,1.332,0,0,1-.029.2.33.33,0,0,1-.621.034.878.878,0,0,1-.035-.281,3.518,3.518,0,0,0-.445-1.765,3.284,3.284,0,0,0-1.377-1.292,3.962,3.962,0,0,0-1.1-.337c-.166-.027-.333-.044-.5-.067a.316.316,0,0,1-.3-.355.312.312,0,0,1,.348-.309,4.565,4.565,0,0,1,1.9.5,3.848,3.848,0,0,1,2.094,2.99c.009.061.024.121.028.182.011.151.019.3.03.5C232.465,155.178,232.458,154.943,232.469,155.142Z" transform="translate(-216.05 -144.684)"/>
    <path id="Path_1328" data-name="Path 1328" class="cls-1" d="M235.769,173.485a.359.359,0,0,1-.4-.353,3.657,3.657,0,0,0-.068-.464,1.306,1.306,0,0,0-.482-.756,1.257,1.257,0,0,0-.392-.189c-.178-.051-.363-.037-.541-.081a.332.332,0,0,1-.27-.385.349.349,0,0,1,.368-.281,2,2,0,0,1,2.046,1.989.922.922,0,0,1,0,.282.289.289,0,0,1-.26.237C235.526,173.489,235.879,173.477,235.769,173.485Z" transform="translate(-221.156 -163.097)"/>
  </g>
</svg>
