<svg xmlns="http://www.w3.org/2000/svg" viewBox="-15254 -3563 18 12.273">
  <path id="Combined-Shape" d="M15.091,16.335l3.273,2.182V11.756l-3.273,2.182Zm0-4.364,3.637-2.425A.818.818,0,0,1,20,10.227v9.818a.818.818,0,0,1-1.272.681L15.091,18.3v.923a2.049,2.049,0,0,1-2.044,2.049h-9A2.045,2.045,0,0,1,2,19.224V11.049A2.049,2.049,0,0,1,4.044,9h9a2.045,2.045,0,0,1,2.044,2.049v.923ZM3.636,11.049v8.175a.409.409,0,0,0,.408.412h9a.412.412,0,0,0,.408-.412V11.049a.409.409,0,0,0-.408-.412h-9A.412.412,0,0,0,3.636,11.049Z" transform="translate(-15256 -3572)"/>
</svg>
