<svg xmlns="http://www.w3.org/2000/svg" viewBox="-19493 -14606 18 13.909">
  <path id="Combined-Shape" d="M19.182,11.092A2.039,2.039,0,0,1,20,12.726v2.457a2.038,2.038,0,0,1-.818,1.636v2.045a2.048,2.048,0,0,1-2.045,2.045H4.044A2.046,2.046,0,0,1,2,18.864V9.045A2.048,2.048,0,0,1,4.044,7H17.137a2.046,2.046,0,0,1,2.045,2.045v2.046Zm-1.636-.41V9.045a.41.41,0,0,0-.408-.409H4.044a.411.411,0,0,0-.408.409v9.818a.41.41,0,0,0,.408.409H17.137a.411.411,0,0,0,.408-.409V17.227H13.868a2.047,2.047,0,0,1-2.049-2.044V12.726a2.044,2.044,0,0,1,2.049-2.044Zm-4.091,2.044v2.457a.41.41,0,0,0,.413.408h4.083a.408.408,0,0,0,.413-.408V12.726a.41.41,0,0,0-.413-.408H13.868A.408.408,0,0,0,13.455,12.726Zm1.636,2.047a.818.818,0,1,1,.818-.818A.818.818,0,0,1,15.091,14.773Z" transform="translate(-19495 -14613)"/>
</svg>
