<?xml version="1.0" encoding="UTF-8"?><!DOCTYPE svg PUBLIC "-//W3C//DTD SVG 1.1//EN" "http://www.w3.org/Graphics/SVG/1.1/DTD/svg11.dtd"><svg xmlns="http://www.w3.org/2000/svg"><defs>
        <style>
            .cls-1{opacity:.35}
        </style>
    
        <style>
            .cls-1{opacity:.45}
        </style>
    
        <style>
            .cls-1{opacity:.2}
        </style>
    
        <style>
            .cls-1{opacity:.2}
        </style>
    
        <style>
            .cls-1{opacity:.35}.cls-2{fill:none}
        </style>
    
        <style>
            .cls-1{fill:#ced4da}
        </style>
    
        <style>
            .cls-1{opacity:.4}
        </style>
    
        <style>
            .cls-1{opacity:.4}
        </style>
    
        <style>
            .cls-1{opacity:.65}
        </style>
    
        <style>
            .cls-1{opacity:.35}
        </style>
    
        <style>
            .cls-1{fill:#fff}
        </style>
    
        <style>
            .cls-1{opacity:.45}
        </style>
    
        <style>
            .cls-1{fill:#fff;fill-rule:evenodd}
        </style>
    
        <style>
            .cls-1{fill:#1380f6}
        </style>
    
        <style>
            .cls-1{fill:#1380f6}
        </style>
    
        <style>
            .cls-1{fill:#1380f6}
        </style>
    
        <style>
            .cls-1{fill:#1380f6}
        </style>
    
        <style>
            .cls-1{fill:#868e96}
        </style>
    
        <style>
            .cls-1{fill:#fff}
        </style>
    
        <style>
            .cls-1{fill:#fff}
        </style>
    
        <style>
            .cls-1{opacity:.45}
        </style>
    
        <style>
            .cls-1{fill:#fff}
        </style>
    
        <style>
            .cls-1{fill:#f03e3e}
        </style>
    
        <style>
            .cls-1{fill:rgba(0,0,0,.25)}
        </style>
    
        <style>
            .cls-1{fill:#fff}
        </style>
    
        <style>
            .cls-1{fill:#1380f6}
        </style>
    
        <style>
            .cls-1{fill:#868e96}
        </style>
    
        <style>
            .cls-1{fill:#1380f6}
        </style>
    
        <style>
            .cls-1{opacity:.6}
        </style>
    
        <style>
            .cls-1{fill:#8dc5fb}
        </style>
    
        <style>
            .cls-1{fill:#fff}
        </style>
    
        <style>
            .cls-1{fill:#fff}
        </style>
    
        <style>
            .cls-1{fill:#495057}
        </style>
    
        <style>
            .cls-1{fill:#fff}
        </style>
    
        <style>
            .cls-1{fill:#1380f6}
        </style>
    
        <style>
            .cls-1{fill:#1380f6}
        </style>
    
        <style>
            .cls-1{opacity:.35}
        </style>
    
        <style>
            .cls-1{fill:#fff}
        </style>
    
        <style>
            .cls-1{fill:#1380f6}
        </style>
    
        <style>
            .cls-1{fill:#1380f6}
        </style>
    
        <style>
            .cls-1{fill:#fff}
        </style>
    
        <style>
            .cls-1{fill:#fff}
        </style>
    
        <style>
            .cls-1{opacity:.45}
        </style>
    
        <style>
            .cls-1{fill:#fff}
        </style>
    
        <style>
            .cls-1{fill:#1380f6}
        </style>
    
        <style>
            .cls-1{fill:#fff}
        </style>
    
        <style>
            .cls-1{fill:#fff}
        </style>
    </defs><symbol id="icon-add-border" viewBox="-19095.666 -14364.667 23.334 23.333">
    <path data-name="Path 147" d="M-19082.834-14358.834h-2.333v4.667h-4.667v2.333h4.667v4.667h2.333v-4.667h4.667v-2.333h-4.667zm-1.166-5.833a11.667 11.667 0 1 0 11.666 11.667 11.671 11.671 0 0 0-11.666-11.667zm0 21a9.333 9.333 0 1 1 9.333-9.333 9.346 9.346 0 0 1-9.333 9.333z"/>
</symbol><symbol id="icon-add-circle" viewBox="-20623 -18707 16 16">
    
    <path id="Path_141" data-name="Path 141" class="cls-1" d="M10 2a8 8 0 1 0 8 8 8 8 0 0 0-8-8zm4 8.8h-3.2V14H9.2v-3.2H6V9.2h3.2V6h1.6v3.2H14z" transform="translate(-20625 -18709)"/>
</symbol><symbol id="icon-add-friends" viewBox="-15254 -3818 18 15.545">
    <path d="M-15247.045-3811.455a3.273 3.273 0 1 1 3.273-3.273 3.273 3.273 0 0 1-3.273 3.273zm0-1.636a1.636 1.636 0 1 0-1.637-1.636 1.636 1.636 0 0 0 1.637 1.636zm3.682 9h-8.9a1.738 1.738 0 0 1-1.737-1.739v-.058c0-.068.014-.183.028-.33.024-.245.052-.49.086-.721a4.084 4.084 0 0 1 .265-1.074c.511-1.111 4.058-2.624 6.573-2.624a11.59 11.59 0 0 1 4.278 1 4.091 4.091 0 1 1-.6 5.549zm-.737-1.636a4.11 4.11 0 0 1 .309-2.566 9.084 9.084 0 0 0-3.254-.707 9.271 9.271 0 0 0-3.484.8 8.722 8.722 0 0 0-1.255.648 2.974 2.974 0 0 0-.336.245l-.029.027a4.514 4.514 0 0 0-.115.578c-.03.2-.055.421-.076.641-.01.1-.017.188-.022.246a.1.1 0 0 0 .1.087zm4.827-1.636v-.818a.818.818 0 1 0-1.636 0v.818h-.818a.818.818 0 0 0 0 1.636h.818v.818a.818.818 0 0 0 1.636 0v-.818h.818a.818.818 0 1 0 0-1.636z"/>
</symbol><symbol id="icon-add-pluss" viewBox="-20271 -18672 18 18">
    
    <path id="add-pluss-3" class="cls-1" d="M11 20a9 9 0 1 1 9-9 9 9 0 0 1-9 9zm0-1.636A7.364 7.364 0 1 0 3.636 11 7.364 7.364 0 0 0 11 18.364zm.818-8.182h2.864a.818.818 0 1 1 0 1.636h-2.864v2.864a.818.818 0 1 1-1.636 0v-2.864H7.318a.818.818 0 0 1 0-1.636h2.864V7.318a.818.818 0 0 1 1.636 0z" transform="translate(-20273 -18674)"/>
</symbol><symbol id="icon-add-thin" viewBox="-18563 -10404.998 19.998 20">
    
    <path id="Union_17" data-name="Union 17" class="cls-1" d="M18853 21507v-8h-8a1 1 0 0 1 0-2h8v-8a1 1 0 0 1 2 0v8h8a1 1 0 0 1 0 2h-8v8a1 1 0 1 1-2 0z" transform="translate(-37407 -31893)"/>
</symbol><symbol id="icon-add" viewBox="-18566.998 -21043.998 26 26">
    
    <path id="Union_15" data-name="Union 15" class="cls-1" d="M18852 21509v-9h-9a2 2 0 0 1 0-4h9v-9a2 2 0 0 1 4 0v9h9a2 2 0 1 1 0 4h-9v9a2 2 0 1 1-4 0z" transform="translate(-37408 -42529)"/>
</symbol><symbol id="icon-apps" viewBox="-19769 -19127 24 24">
    
    <g id="ic_apps_black_24px" class="cls-1" transform="translate(-19769 -19127)">
        <path id="Path_114" data-name="Path 114" d="M4 11h7V4H4z"/>
        <path id="Path_123" data-name="Path 123" d="M4 11h7V4H4z" transform="translate(0 9)"/>
        <path id="Path_121" data-name="Path 121" d="M4 11h7V4H4z" transform="translate(9)"/>
        <path id="Path_122" data-name="Path 122" d="M4 11h7V4H4z" transform="translate(9 9)"/>
    </g>
</symbol><symbol id="icon-arrow-big" viewBox="-18250.436 -886.728 14.85 25.456">
    
    <path id="Union_23" data-name="Union 23" class="cls-1" d="M5077 14989.334l10.606-10.605-10.606-10.607 2.122-2.122 10.606 10.606 2.122 2.122-2.122 2.122-10.606 10.605z" transform="translate(-23327.435 -15852.728)"/>
</symbol><symbol id="icon-arrow-down-3" viewBox="-18297 -6421 20 20">
    
    <path id="arrow-down-3" class="cls-1" d="M12 22a10 10 0 1 1 10-10 10 10 0 0 1-10 10zm0-1.818A8.182 8.182 0 1 0 3.818 12 8.182 8.182 0 0 0 12 20.182zM8.552 9.539L12 12.987l3.448-3.448a.909.909 0 1 1 1.286 1.286l-4.091 4.091a.909.909 0 0 1-1.285 0l-4.092-4.091a.909.909 0 1 1 1.286-1.286z" transform="translate(-18299 -6423)"/>
</symbol><symbol id="icon-arrow-down-4" viewBox="-18297 -6970 20 20">
    
    <path id="arrow-down-3" class="cls-1" d="M12 22a10 10 0 1 1 10-10 10 10 0 0 1-10 10zm0-1.818A8.182 8.182 0 1 0 3.818 12 8.182 8.182 0 0 0 12 20.182zM8.552 9.539L12 12.987l3.448-3.448a.909.909 0 1 1 1.286 1.286l-4.091 4.091a.909.909 0 0 1-1.285 0l-4.092-4.091a.909.909 0 1 1 1.286-1.286z" transform="rotate(180 -9137.5 -3474)"/>
</symbol><symbol id="icon-arrow-down" viewBox="-20663.947 -18748.949 9.898 6.365">
    <path data-name="Union 4" d="M-20659-18742.584l-1.416-1.414-3.533-3.537 1.41-1.414 3.537 3.537 3.535-3.537 1.416 1.414-3.537 3.537z"/>
</symbol><symbol id="icon-arrow-l" viewBox="-11677 -964 16 16">
    <path data-name="Path 1330" d="M-11669-948l1.41-1.41-5.58-5.59h12.17v-2h-12.17l5.58-5.59-1.41-1.41-8 8z"/>
</symbol><symbol id="icon-arrow-r" viewBox="-16874 -791 17 14">
    
    <path id="Path_1332" data-name="Path 1332" class="cls-1" d="M20 11H6.83l4.58-4.59L10 5l-7 7 7 7 1.41-1.41L6.83 13H20z" transform="rotate(180 -8427 -386)"/>
</symbol><symbol id="icon-back-icon" viewBox="0 0 18 12">
    <path data-name="Path 132" d="M18 5H3.83l3.58-3.59L6 0 0 6l6 6 1.41-1.41L3.83 7H18z"/>
</symbol><symbol id="icon-basket-2" viewBox="-20621 -18905 10.889 14">
    
    <path id="Path_140" data-name="Path 140" class="cls-1" d="M5.778 15.444A1.56 1.56 0 0 0 7.333 17h6.222a1.56 1.56 0 0 0 1.556-1.556V6.111H5.778zM15.889 3.778h-2.722L12.389 3H8.5l-.778.778H5v1.555h10.889z" transform="translate(-20626 -18908)"/>
</symbol><symbol id="icon-basket" viewBox="-15254 -4059 18 18">
    <path d="M-15238.044-4055.318a2.043 2.043 0 0 1 2.044 2.047v3.141a2.394 2.394 0 0 1-1.855 2.281l-9.045 1.895a2.04 2.04 0 0 1-2.42-1.588l-2.071-9.822h-1.791a.818.818 0 1 1 0-1.636h2.455a.818.818 0 0 1 .8.649l.639 3.032zm-9.674 7.445a.4.4 0 0 0 .482.317l9.046-1.895a.763.763 0 0 0 .554-.68v-3.14a.407.407 0 0 0-.407-.41h-10.864zm-.35 6.873a1.841 1.841 0 1 1 1.841-1.841 1.841 1.841 0 0 1-1.841 1.841zm8.182 0a1.841 1.841 0 1 1 1.841-1.841 1.841 1.841 0 0 1-1.841 1.841z"/>
</symbol><symbol id="icon-bin-2" viewBox="-18627 1436 16.363 18">
    
    <path id="bin" class="cls-1" d="M18.673 8.514l-.679 9.5A2.155 2.155 0 0 1 15.867 20H8.5a2.152 2.152 0 0 1-2.127-1.986l-.678-9.5A2.049 2.049 0 0 1 4 6.5v-.818a2.047 2.047 0 0 1 1.991-2.045l2.646-.331A2.047 2.047 0 0 1 10.547 2h3.27a2.049 2.049 0 0 1 1.908 1.306l2.647.331a2.048 2.048 0 0 1 1.991 2.045V6.5a2.047 2.047 0 0 1-1.69 2.014zm-11.34.031L8 17.9a.516.516 0 0 0 .495.466h7.371a.52.52 0 0 0 .495-.466l.668-9.352zm6.079 2.387a.818.818 0 1 1 1.631.136l-.409 4.909A.818.818 0 1 1 13 15.841zm-4.091.136a.818.818 0 1 1 1.631-.136l.409 4.909a.818.818 0 1 1-1.631.136zm-3.273-5.8a.411.411 0 0 0-.412.409V6.5a.412.412 0 0 0 .412.409h12.267a.411.411 0 0 0 .412-.409v-.818a.412.412 0 0 0-.412-.409.818.818 0 0 1-.1-.006l-3.269-.409a.818.818 0 0 1-.717-.812.411.411 0 0 0-.41-.409h-3.27a.409.409 0 0 0-.41.409.818.818 0 0 1-.717.812l-3.272.409a.818.818 0 0 1-.1.006z" transform="translate(-18631 1434)"/>
</symbol><symbol id="icon-bin" viewBox="-19879 -18825 16.363 18">
    
    <path id="bin" class="cls-1" d="M18.673 8.514l-.679 9.5A2.155 2.155 0 0 1 15.867 20H8.5a2.152 2.152 0 0 1-2.127-1.986l-.678-9.5A2.049 2.049 0 0 1 4 6.5v-.818a2.047 2.047 0 0 1 1.991-2.045l2.646-.331A2.047 2.047 0 0 1 10.547 2h3.27a2.049 2.049 0 0 1 1.908 1.306l2.647.331a2.048 2.048 0 0 1 1.991 2.045V6.5a2.047 2.047 0 0 1-1.69 2.014zm-11.34.031L8 17.9a.516.516 0 0 0 .495.466h7.371a.52.52 0 0 0 .495-.466l.668-9.352zm6.079 2.387a.818.818 0 1 1 1.631.136l-.409 4.909A.818.818 0 1 1 13 15.841zm-4.091.136a.818.818 0 1 1 1.631-.136l.409 4.909a.818.818 0 1 1-1.631.136zm-3.273-5.8a.411.411 0 0 0-.412.409V6.5a.412.412 0 0 0 .412.409h12.267a.411.411 0 0 0 .412-.409v-.818a.412.412 0 0 0-.412-.409.818.818 0 0 1-.1-.006l-3.269-.409a.818.818 0 0 1-.717-.812.411.411 0 0 0-.41-.409h-3.27a.409.409 0 0 0-.41.409.818.818 0 0 1-.717.812l-3.272.409a.818.818 0 0 1-.1.006z" transform="translate(-19883 -18827)"/>
</symbol><symbol id="icon-box-3" viewBox="-18665 1436 18 18">
    
    <path id="box-3" class="cls-1" d="M6.535 4.137l.016-.008 4.084-2.041a.818.818 0 0 1 .731 0l8.182 4.091A.809.809 0 0 1 20 6.91v8.182a.818.818 0 0 1-.452.732l-8.174 4.086a.828.828 0 0 1-.364.09.817.817 0 0 1-.383-.091l-8.175-4.085A.818.818 0 0 1 2 15.092V6.91a.809.809 0 0 1 .452-.732l4.083-2.042zm7.738 6.142l-2.455 1.227v6.352l6.545-3.273V8.234l-2.454 1.227v2.767a.818.818 0 0 1-1.636 0zm-7.364-4.5L4.648 6.91 11 10.086l2.261-1.131zm1.829-.915l6.353 3.176 2.261-1.13L11 3.734zm-5.1 9.722l6.545 3.273v-6.353L3.636 8.234z" transform="translate(-18667 1433.999)"/>
</symbol><symbol id="icon-bubble-rounded-2" viewBox="-10173 -2473 22 22">
    
    <path id="bubble-rounded-2" class="cls-1" d="M23.607 21.3a1.813 1.813 0 0 1-2.3 2.3l-3.278-.819a10.995 10.995 0 1 1 4.761-4.761l.82 3.278zm-2.854-3.168a1 1 0 0 1 .1-.733 9 9 0 1 0-3.453 3.452 1 1 0 0 1 .733-.1l3.49.872zM8.5 12a1 1 0 0 1 0-2h9a1 1 0 0 1 0 2zm0 4a1 1 0 0 1 0-2h6a1 1 0 0 1 0 2z" transform="translate(-10175 -2475)"/>
</symbol><symbol id="icon-check-3" viewBox="-13084 -14536 18 18">
    
    <path id="check-3" class="cls-1" d="M11 20a9 9 0 1 1 9-9 9 9 0 0 1-9 9zm0-1.636A7.364 7.364 0 1 0 3.636 11 7.364 7.364 0 0 0 11 18.364zm-3.1-7.942L9.773 12.3 14.1 7.967a.818.818 0 1 1 1.16 1.157l-4.909 4.909a.818.818 0 0 1-1.157 0L6.74 11.578a.818.818 0 1 1 1.16-1.157z" transform="translate(-13086 -14538)"/>
</symbol><symbol id="icon-check" viewBox="-6710.365 -21984.896 16.264 11.313">
    
    <path id="Union_11" data-name="Union 11" class="cls-1" d="M23169.877 21954.414l1.414-1.414 4.951 4.951 8.484-8.484 1.414 1.414-8.484 8.484-1.414 1.414z" transform="translate(-29880.242 -43934.363)"/>
</symbol><symbol id="icon-clip" viewBox="-18688 -2380 13.818 16">
    
    <path id="clip" class="cls-1" d="M17.489 11.2L13.3 15.375a4 4 0 1 1-5.671-5.647l5.584-5.564a2.441 2.441 0 0 1 3.44 0 2.411 2.411 0 0 1 0 3.419l-5.583 5.565a.858.858 0 0 1-1.208 0 .843.843 0 0 1 0-1.2l4.186-4.171a.727.727 0 0 0-1.025-1.027l-4.186 4.172a2.3 2.3 0 1 0 3.26 3.256l5.585-5.565a3.88 3.88 0 0 0-5.5-5.48L6.6 8.7a5.457 5.457 0 1 0 7.729 7.7l4.188-4.173a.727.727 0 0 0-1.027-1.03z" transform="translate(-18693 -2382)"/>
</symbol><symbol id="icon-close-2" viewBox="-17993.002 3285 20.002 19.998">
    
    <path id="Subtraction_9" data-name="Subtraction 9" class="cls-1" d="M19607-3061a10.013 10.013 0 0 1-10-10 10.013 10.013 0 0 1 10-10 9.933 9.933 0 0 1 7.07 2.928 9.94 9.94 0 0 1 2.93 7.072 9.939 9.939 0 0 1-2.928 7.071A9.933 9.933 0 0 1 19607-3061zm0-8.586l2.83 2.83 1.408-1.413-2.826-2.831 2.826-2.831-1.408-1.413-2.83 2.831-2.836-2.831-1.408 1.413 2.83 2.831-2.83 2.831 1.412 1.413 2.832-2.83z" transform="translate(-37590 6366)"/>
</symbol><symbol id="icon-close" viewBox="-16932 -21452 14 14">
    <path data-name="Path 656" d="M-16918-21450.59l-1.41-1.41-5.59 5.59-5.59-5.59-1.41 1.41 5.59 5.59-5.59 5.59 1.41 1.41 5.59-5.59 5.59 5.59 1.41-1.41-5.59-5.59z"/>
</symbol><symbol id="icon-Combined-Shape-1" viewBox="-18779 1436 18 17.999">
    
    <path id="Combined-Shape" class="cls-1" d="M2 4.089A2.086 2.086 0 0 1 4.089 2H8.3a4.327 4.327 0 0 1 2.744 1.134l8.344 8.344a2.086 2.086 0 0 1 0 2.949l-4.961 4.961a2.088 2.088 0 0 1-2.949 0l-8.344-8.341A4.308 4.308 0 0 1 2 8.3zm1.636 0V8.3a2.713 2.713 0 0 0 .656 1.59l8.344 8.344a.452.452 0 0 0 .635 0l4.961-4.961a.45.45 0 0 0 0-.635L9.89 4.292a2.736 2.736 0 0 0-1.59-.656H4.089a.45.45 0 0 0-.453.453zM6.5 7.727A1.227 1.227 0 1 1 7.727 6.5 1.227 1.227 0 0 1 6.5 7.727z" transform="translate(-18781 1434)"/>
</symbol><symbol id="icon-Combined-Shape" viewBox="-18703 1436 18 18">
    
    <path id="Combined-Shape" class="cls-1" d="M6.091 6.091V4.045A2.047 2.047 0 0 1 8.136 2h9.818A2.047 2.047 0 0 1 20 4.045v9.818a2.047 2.047 0 0 1-2.045 2.045h-2.046v2.045A2.047 2.047 0 0 1 13.864 20H4.045A2.047 2.047 0 0 1 2 17.955V8.136a2.047 2.047 0 0 1 2.045-2.045zm0 1.636H4.045a.41.41 0 0 0-.409.409v9.818a.41.41 0 0 0 .409.409h9.818a.41.41 0 0 0 .409-.409v-2.045H8.136a2.047 2.047 0 0 1-2.045-2.045zm1.636-3.682v9.818a.41.41 0 0 0 .409.409h9.818a.41.41 0 0 0 .409-.409V4.045a.41.41 0 0 0-.409-.409H8.136a.41.41 0 0 0-.409.409z" transform="translate(-18705 1434)"/>
</symbol><symbol id="icon-copy" viewBox="-17431.5 -15683.25 14.25 16.5">
    <path data-name="Path 655" d="M-17421-15683.25h-9a1.5 1.5 0 0 0-1.5 1.5v10.5h1.5v-10.5h9zm2.25 3h-8.25a1.5 1.5 0 0 0-1.5 1.5v10.5a1.5 1.5 0 0 0 1.5 1.5h8.25a1.5 1.5 0 0 0 1.5-1.5v-10.5a1.5 1.5 0 0 0-1.5-1.5zm0 12h-8.25v-10.5h8.25z"/>
</symbol><symbol id="icon-csv-download" viewBox="-13433 1437 24 16">
    <path data-name="Path 951" d="M-13413.65 1443.04a7.492 7.492 0 0 0-14-2 6 6 0 0 0 .65 11.96h13a4.986 4.986 0 0 0 .35-9.96zm-2.35 2.96l-5 5-5-5h3v-4h4v4z"/>
</symbol><symbol id="icon-csv-upload" viewBox="-13223 1437 24 16">
    <path data-name="Path 953" d="M-13203.65 1443.04a7.492 7.492 0 0 0-14-2 6 6 0 0 0 .65 11.96h13a4.986 4.986 0 0 0 .35-9.96zm-5.35 2.96v4h-4v-4h-3l5-5 5 5z"/>
</symbol><symbol id="icon-delete" viewBox="-15599.833 -20761.5 11.667 15">
    <path data-name="Path 977" d="M-15599-20748.167a1.672 1.672 0 0 0 1.667 1.667h6.667a1.672 1.672 0 0 0 1.667-1.667v-10h-10zm10.833-12.5h-2.916l-.833-.833h-4.167l-.833.833h-2.917v1.667h11.667z"/>
</symbol><symbol id="icon-dollar" viewBox="-15254 -3963 18 18">
    <path d="M-15245-3945a9 9 0 1 1 9-9 9 9 0 0 1-9 9zm0-1.636a7.364 7.364 0 1 0-7.364-7.364 7.364 7.364 0 0 0 7.364 7.364zm.818-2.965v.92a.818.818 0 1 1-1.636 0v-.912a3.694 3.694 0 0 1-1.118-.47 3.306 3.306 0 0 1-.725-.594.818.818 0 1 1 1.232-1.077 1.776 1.776 0 0 0 .361.284 1.985 1.985 0 0 0 1.068.314c.769 0 1.271-.456 1.228-.85-.04-.37-.382-.655-1.471-1.219l-.13-.068-.014-.007-.116-.06c-1.588-.823-2.22-1.35-2.344-2.494a2.478 2.478 0 0 1 2.029-2.566v-.92a.818.818 0 1 1 1.636 0v.912a3.694 3.694 0 0 1 1.118.47 3.306 3.306 0 0 1 .725.594.818.818 0 1 1-1.232 1.077 1.776 1.776 0 0 0-.361-.284 1.985 1.985 0 0 0-1.068-.313c-.769 0-1.271.456-1.229.85.041.37.382.655 1.471 1.219l.261.135c1.588.824 2.22 1.351 2.344 2.495a2.478 2.478 0 0 1-2.029 2.565z"/>
</symbol><symbol id="icon-domen" viewBox="-15254 -4011 18 18">
    <path d="M-15245.041-3994.636a2.047 2.047 0 0 1-2 1.636h-4.917a2.046 2.046 0 0 1-2.042-2.042v-4.916a2.047 2.047 0 0 1 1.636-2v-6.994a2.048 2.048 0 0 1 2.049-2.048h12.267a2.048 2.048 0 0 1 2.048 2.048v12.267a2.048 2.048 0 0 1-2.048 2.048zm.041-1.637h6.952a.412.412 0 0 0 .412-.412v-12.267a.412.412 0 0 0-.412-.412h-12.267a.412.412 0 0 0-.412.412v6.952h3.685a2.046 2.046 0 0 1 2.042 2.042zm-7.364-3.685v4.915a.41.41 0 0 0 .406.406h4.916a.409.409 0 0 0 .406-.406v-4.915a.409.409 0 0 0-.406-.406h-4.916a.41.41 0 0 0-.406.406z"/>
</symbol><symbol id="icon-edit-write" viewBox="-19917 -18825 18 18">
    
    <path id="edit-write" class="cls-1" d="M13.659 6.225L3.636 16.248v2.116h2.116L15.775 8.341zm1.157-1.157l2.116 2.116 1.093-1.093-2.116-2.116zm1.672-2.828l3.272 3.273a.818.818 0 0 1 0 1.157L6.669 19.761a.818.818 0 0 1-.578.24H2.818A.818.818 0 0 1 2 19.182v-3.273a.818.818 0 0 1 .24-.578L15.331 2.24a.818.818 0 0 1 1.157 0zm2.694 16.124a.818.818 0 0 1 0 1.636H11a.818.818 0 0 1 0-1.636z" transform="translate(-19919 -18827)"/>
</symbol><symbol id="icon-email" viewBox="-19493 -14512 18 18">
    <path d="M-19491.55-14507.605l1-.6v-1.751a2.046 2.046 0 0 1 2.05-2.044h9a2.042 2.042 0 0 1 2.044 2.044v1.748l1 .6a3.205 3.205 0 0 1 1.456 2.56v9a2.045 2.045 0 0 1-2.048 2.048h-13.904a2.048 2.048 0 0 1-2.048-2.044v-9.025a3.216 3.216 0 0 1 1.45-2.537zm1 1.305l-.162.1a1.607 1.607 0 0 0-.656 1.151v.418a1.6 1.6 0 0 0 .656 1.154l.162.1zm13.091 0v2.918l.162-.1a1.606 1.606 0 0 0 .656-1.154v-.416a1.607 1.607 0 0 0-.651-1.148zm.818 4.335l-6.938 4.165a.818.818 0 0 1-.843 0l-6.942-4.165v5.921a.412.412 0 0 0 .412.407h13.9a.409.409 0 0 0 .412-.407v-5.921zm-2.45-7.991a.406.406 0 0 0-.407-.407h-9a.41.41 0 0 0-.407.407v7.556l4.905 2.946 4.909-2.946zm-7.364 3.683a.818.818 0 1 1 0-1.636h4.909a.818.818 0 0 1 0 1.636zm0 2.455a.818.818 0 1 1 0-1.636h4.909a.818.818 0 1 1 0 1.636z"/>
</symbol><symbol id="icon-envelope" viewBox="-18755 -2266 18 13.091">
    
    <path id="envelope" class="cls-1" d="M2 10.044A2.045 2.045 0 0 1 4.048 8h13.9A2.048 2.048 0 0 1 20 10.044v9a2.045 2.045 0 0 1-2.048 2.044H4.048A2.048 2.048 0 0 1 2 19.047zm16.364 3.082l-6.942 4.166a.818.818 0 0 1-.843 0l-6.943-4.166v5.921a.412.412 0 0 0 .412.407h13.9a.409.409 0 0 0 .412-.407v-5.921zm-.656-1.515a1.6 1.6 0 0 0 .656-1.154v-.413a.408.408 0 0 0-.407-.408H4.043a.408.408 0 0 0-.407.408v.413a1.6 1.6 0 0 0 .656 1.154L11 15.637z" transform="translate(-18757 -2274)"/>
</symbol><symbol id="icon-error-3" viewBox="-10110 -8626 16 16">
    
    <path id="error-3" class="cls-1" d="M10 18a8 8 0 1 1 8-8 8 8 0 0 1-8 8zm0-1.455A6.545 6.545 0 1 0 3.455 10 6.546 6.546 0 0 0 10 16.545zm0-7.574l2.395-2.395a.727.727 0 1 1 1.028 1.028L11.028 10l2.395 2.395a.727.727 0 1 1-1.028 1.028L10 11.028l-2.395 2.395a.727.727 0 1 1-1.028-1.028L8.972 10 6.577 7.605a.727.727 0 1 1 1.028-1.028z" transform="translate(-10112 -8628)"/>
</symbol><symbol id="icon-eye" viewBox="-21847 -8893.5 16 10.909">
    
    <path id="Path_2111" data-name="Path 2111" class="cls-1" d="M9 4.5a8.6 8.6 0 0 0-8 5.455 8.594 8.594 0 0 0 16 0A8.6 8.6 0 0 0 9 4.5zm0 9.091a3.636 3.636 0 1 1 3.636-3.636A3.638 3.638 0 0 1 9 13.591zm0-5.818a2.182 2.182 0 1 0 2.182 2.182A2.179 2.179 0 0 0 9 7.773z" transform="translate(-21848 -8898)"/>
</symbol><symbol id="icon-facebook" viewBox="0 0 10 19">
    <title>
        facebook
    </title>
    <path d="M9.766.157v2.946H8.014c-.64 0-1.071.134-1.295.402-.223.268-.335.67-.335 1.205v2.11h3.27l-.435 3.303H6.384v8.471H2.97v-8.47H.123V6.82H2.97V4.387c0-1.384.387-2.457 1.161-3.22C4.904.404 5.934.023 7.222.023c1.093 0 1.941.045 2.544.134z" fill-rule="evenodd"/>
</symbol><symbol id="icon-folder-5" viewBox="-18741 1438 18 14.709">
    
    <path id="folder-5" class="cls-1" d="M18.327 10.909A1.742 1.742 0 0 1 19.92 13.1l-1.337 5.777a2.429 2.429 0 0 1-2.3 1.83H5.659a2.431 2.431 0 0 1-2.3-1.83L2.024 13.1a1.743 1.743 0 0 1 1.593-2.193V8.041A2.043 2.043 0 0 1 5.661 6h4a.817.817 0 0 1 .68.364l1.065 1.6h4.87a2.047 2.047 0 0 1 2.047 2.044zm-1.635-.009V10a.412.412 0 0 0-.412-.4h-5.308a.817.817 0 0 1-.68-.364l-1.065-1.6H5.661a.409.409 0 0 0-.409.407V10.9h11.44zM4.954 18.511a.806.806 0 0 0 .705.564h10.626a.8.8 0 0 0 .705-.564l1.337-5.778c.034-.15 0-.2-.153-.2H3.77c-.15 0-.187.047-.153.2l1.337 5.777z" transform="translate(-18742.972 1432)"/>
</symbol><symbol id="icon-folder-open" viewBox="-20843 -18905 18 14">
    
    <path id="Path_118" data-name="Path 118" class="cls-1" d="M18 6h-6l-2-2H4a2 2 0 0 0-1.99 2L2 16a2.006 2.006 0 0 0 2 2h14a2.006 2.006 0 0 0 2-2V8a2.006 2.006 0 0 0-2-2zm0 10H4V8h14z" transform="translate(-20845 -18909)"/>
</symbol><symbol id="icon-folder" viewBox="-20829 -18867 18 14">
    
    <path id="Path_118" data-name="Path 118" class="cls-1" d="M18 6h-6l-2-2H4a2 2 0 0 0-1.99 2L2 16a2.006 2.006 0 0 0 2 2h14a2.006 2.006 0 0 0 2-2V8a2.006 2.006 0 0 0-2-2z" transform="translate(-20831 -18871)"/>
</symbol><symbol id="icon-home" viewBox="-15254 -4107 18 18">
    <path d="M-15246.636-4089.818a.818.818 0 0 1-.819.818h-4.5a2.043 2.043 0 0 1-2.045-2.048V-4098a3.817 3.817 0 0 1 1.223-2.645l7.247-6.16a.818.818 0 0 1 1.06 0l7.247 6.16A3.816 3.816 0 0 1-15236-4098v6.955a2.045 2.045 0 0 1-2.046 2.045h-4.5a.818.818 0 0 1-.818-.818v-4.909h-3.272zm8.59-.818a.408.408 0 0 0 .409-.412V-4098a2.215 2.215 0 0 0-.646-1.4l-6.717-5.708-6.717 5.708a2.222 2.222 0 0 0-.647 1.4v6.955a.407.407 0 0 0 .407.412h3.684v-4.912a.818.818 0 0 1 .818-.818h4.909a.818.818 0 0 1 .818.818v4.909z"/>
</symbol><symbol id="icon-infinity" viewBox="-20982 3029.62 24 10.76">
    
    <path id="Path_2358" data-name="Path 2358" class="cls-1" d="M18.6 6.62a5.331 5.331 0 0 0-3.77 1.53L7.8 14.39a3.386 3.386 0 1 1-2.4-5.77 3.4 3.4 0 0 1 2.44 1.03l1.13 1 1.51-1.34L9.22 8.2a5.38 5.38 0 1 0-.05 7.65l7.03-6.24a3.386 3.386 0 1 1 2.4 5.77 3.416 3.416 0 0 1-2.44-1.03l-1.14-1.01-1.51 1.34 1.27 1.12a5.389 5.389 0 1 0 3.82-9.18z" transform="translate(-20982 3023)"/>
</symbol><symbol id="icon-info-1" viewBox="-20293 8 18 18">
    
    <path id="info-1" class="cls-1" d="M11 20a9 9 0 1 1 9-9 9 9 0 0 1-9 9zm0-1.636A7.364 7.364 0 1 0 3.636 11 7.364 7.364 0 0 0 11 18.364zm0-10.637a.818.818 0 1 1 .818-.818.818.818 0 0 1-.818.818zm-.818 2.045a.818.818 0 1 1 1.636 0v5.318a.818.818 0 1 1-1.636 0z" transform="translate(-20295 6)"/>
</symbol><symbol id="icon-info-2" viewBox="-10173 -2891 44 44">
    
    <path id="info-2" class="cls-1" d="M24 46a22 22 0 1 1 22-22 22 22 0 0 1-22 22zm0-4A18 18 0 1 0 6 24a18 18 0 0 0 18 18zm0-4a2 2 0 1 1 2-2 2 2 0 0 1-2 2zm2-8.918a2 2 0 1 1-4-.164 7.92 7.92 0 0 1 .752-2.98 5.661 5.661 0 0 1 2.8-2.867C27.634 22.134 29 20.3 29 19a5 5 0 0 0-10 0 2 2 0 0 1-4 0 9 9 0 0 1 18 0c0 2.992-2.372 6.172-5.8 7.717a1.76 1.76 0 0 0-.827.92 4.29 4.29 0 0 0-.32 1.033 3.6 3.6 0 0 0-.057.412z" transform="translate(-10175 -2893)"/>
</symbol><symbol id="icon-lock" viewBox="-20480 -8780 13.908 18">
    
    <path id="Combined-Shape" class="cls-1" d="M9.045 9.364V6.909a4.909 4.909 0 1 1 9.818 0 .818.818 0 0 1-1.636 0 3.273 3.273 0 1 0-6.545 0v2.455h8.182a2.046 2.046 0 0 1 2.045 2.046v6.544A2.047 2.047 0 0 1 18.864 20H9.045A2.046 2.046 0 0 1 7 17.954V11.41a2.047 2.047 0 0 1 2.045-2.046zm-.409 2.046v6.544a.409.409 0 0 0 .409.41h9.818a.41.41 0 0 0 .409-.41V11.41a.409.409 0 0 0-.409-.41H9.045a.41.41 0 0 0-.409.41z" transform="translate(-20487 -8782)"/>
</symbol><symbol id="icon-logout" viewBox="-18562 -10284 18 18">
    <path d="M-18546.793-10274.182h-9.074a.818.818 0 0 1 0-1.636h9.074l-3.1-3.1a.818.818 0 1 1 1.153-1.161l4.5 4.5a.818.818 0 0 1 0 1.157l-4.5 4.5a.819.819 0 1 1-1.16-1.156zm-5.389-9.818a.818.818 0 1 1 0 1.636h-7.769a.411.411 0 0 0-.413.412v13.9a.412.412 0 0 0 .413.412h7.769a.818.818 0 1 1 0 1.636h-7.769a2.048 2.048 0 0 1-2.049-2.044v-13.904a2.048 2.048 0 0 1 2.049-2.048z"/>
</symbol><symbol id="icon-mail-at" viewBox="-11893 -8762 16 16">
    
    <path id="mail-at" class="cls-1" d="M12.916 12.738a4 4 0 1 1-.352-5.809.727.727 0 0 1 1.436.162v4.364a1.194 1.194 0 0 0 1.273 1.091 1.194 1.194 0 0 0 1.273-1.091V10A6.545 6.545 0 1 0 10 16.545.727.727 0 1 1 10 18a8 8 0 1 1 8-8v1.455A2.64 2.64 0 0 1 15.273 14a2.771 2.771 0 0 1-2.357-1.262zM10 12.545A2.545 2.545 0 1 0 7.455 10 2.545 2.545 0 0 0 10 12.545z" transform="translate(-11895 -8764)"/>
</symbol><symbol id="icon-mark-small-black" viewBox="-20977.525 3066 14.92 18">
    
    <path id="Path_40" data-name="Path 40" class="cls-1" d="M429.52 57.76a7.46 7.46 0 1 0-7.46 7.46v3.08l5.238-5.226a7.466 7.466 0 0 0 2.222-5.314zm-4.115 3.421l-3.345 3.345v-1.982a4.784 4.784 0 1 1 3.383-1.4l-.038.038z" transform="translate(-21392.125 3015.7)"/>
</symbol><symbol id="icon-messenger" viewBox="-14287 -10305 24 24">
    
    <path id="Path_1323" data-name="Path 1323" class="cls-1" d="M12 0C5.373 0 0 4.974 0 11.111a10.8 10.8 0 0 0 4.471 8.652V24l4.086-2.243a12.905 12.905 0 0 0 3.443.465c6.627 0 12-4.974 12-11.11S18.627 0 12 0zm1.193 14.963L10.137 11.7l-5.963 3.26L10.734 8l3.13 3.26L19.752 8z" transform="translate(-14287 -10305)"/>
</symbol><symbol id="icon-online-chat" viewBox="-10173 -2807 22 22">
    
    <path id="Combined-Shape" class="cls-1" d="M19.842 9.512a7 7 0 0 0-13.683 0A1 1 0 0 1 7 10.5v5a1 1 0 0 1-1 1H4.5A2.5 2.5 0 0 1 2 14v-2a2.5 2.5 0 0 1 2.12-2.471 9 9 0 0 1 17.761 0A2.5 2.5 0 0 1 24 12v2a2.5 2.5 0 0 1-2.351 2.5 9.014 9.014 0 0 1-6.822 6.319 2 2 0 1 1-.217-2 7.014 7.014 0 0 0 4.965-4.408A1 1 0 0 1 19 15.5v-5a1 1 0 0 1 .842-.988zM4.5 11.5a.5.5 0 0 0-.5.5v2a.5.5 0 0 0 .5.5H5v-3zm16.5 0v3h.5a.5.5 0 0 0 .5-.5v-2a.5.5 0 0 0-.5-.5z" transform="translate(-10175 -2809)"/>
</symbol><symbol id="icon-outline" viewBox="-18389 2930 18 10">
    
    <path id="Path_2393" data-name="Path 2393" class="cls-1" d="M5 13h14v-2H5zm-2 4h14v-2H3zM7 7v2h14V7z" transform="translate(-18392 2923)"/>
</symbol><symbol id="icon-pen" viewBox="-20651 -18905.002 14 14">
    
    <path id="Path_139" data-name="Path 139" class="cls-1" d="M3 14.081V17h2.916l8.6-8.6L11.6 5.48zm13.773-7.94a.774.774 0 0 0 0-1.1l-1.82-1.82a.774.774 0 0 0-1.1 0l-1.42 1.427 2.916 2.916 1.423-1.423z" transform="translate(-20654 -18908)"/>
</symbol><symbol id="icon-power" viewBox="-19870 -16036 16.363 18">
    
    <path id="power" class="cls-1" d="M8.429 4.546A.818.818 0 0 1 9.181 6a6.545 6.545 0 1 0 6 0 .818.818 0 1 1 .751-1.454 8.182 8.182 0 1 1-7.505 0zm2.934-1.728a.818.818 0 0 1 1.636 0V11a.818.818 0 0 1-1.636 0z" transform="translate(-19874 -16038)"/>
</symbol><symbol id="icon-present" viewBox="-12463 -9097 18 18">
    <path d="M-12458.634-9092.909a2.864 2.864 0 0 1 4.934-2.875 2.456 2.456 0 0 1 3.654 2.875h3a2.048 2.048 0 0 1 2.046 2.045v1.637a2.046 2.046 0 0 1-1.636 2v6.18a2.042 2.042 0 0 1-2.044 2.047h-10.64a2.044 2.044 0 0 1-2.044-2.043v-6.18a2.049 2.049 0 0 1-1.636-2.004v-1.637a2.046 2.046 0 0 1 2.048-2.045zm-2.73 2.042v1.643a.409.409 0 0 0 .409.405h6.136v-2.454h-6.135a.406.406 0 0 0-.41.406zm8.182-.405v2.455h6.136a.406.406 0 0 0 .409-.405v-1.645a.409.409 0 0 0-.409-.405zm-6.545 4.09v6.167a.41.41 0 0 0 .41.412h4.5v-6.579zm6.545 0v6.582h4.5a.413.413 0 0 0 .41-.412v-6.17zm0-5.727h.818a.818.818 0 1 0-.818-.818zm-1.636 0v-1.227a1.227 1.227 0 1 0-1.227 1.227z"/>
</symbol><symbol id="icon-rocket" viewBox="-15254.001 -3867 18 18">
    <path d="M-15246.707-3862l2.035-2.71a6.328 6.328 0 0 1 4.58-2.29h3.273a.818.818 0 0 1 .821.818v3.273a6.333 6.333 0 0 1-2.291 4.58l-2.712 2.034-.729 6.565a.818.818 0 0 1-1.392.488l-3.131-3.127a.818.818 0 0 1-.962-.144l-3.272-3.273a.818.818 0 0 1-.144-.962l-3.129-3.129a.818.818 0 0 1 .488-1.392l6.566-.731zm1.784 8.644l1.752 1.756.372-3.345zm-4.724-4.721l1.593-2.123-3.344.371 1.752 1.752zm10.374-1.56a4.73 4.73 0 0 0 1.636-3.272v-2.455h-2.455a4.721 4.721 0 0 0-3.271 1.636l-5.466 7.286 2.269 2.269zm-14.725 8.182a2.454 2.454 0 1 1 2.453 2.455h-1.636a.818.818 0 0 1-.817-.819zm1.636.818h.818a.818.818 0 1 0-.818-.818z"/>
</symbol><symbol id="icon-search" viewBox="-18466 -19124 17.49 17.49">
    <path data-name="Path 128" d="M-18453.5-19113h-.79l-.28-.27a6.51 6.51 0 1 0-.7.7l.27.28v.79l5 4.99 1.49-1.49zm-6 0a4.5 4.5 0 1 1 4.5-4.5 4.494 4.494 0 0 1-4.5 4.5z"/>
</symbol><symbol id="icon-setting-2" viewBox="-21285 -7141 15.273 16">
    
    <path id="Combined-Shape" class="cls-1" d="M8.064 3.821A1.829 1.829 0 0 1 9.9 2h1.476a1.827 1.827 0 0 1 1.834 1.821v.5a6.276 6.276 0 0 1 1.143.632l.433-.247a1.846 1.846 0 0 1 2.5.663l.738 1.259a1.81 1.81 0 0 1-.675 2.491l-.384.218a6.183 6.183 0 0 1 0 1.329l.384.218a1.81 1.81 0 0 1 .675 2.491l-.738 1.259a1.846 1.846 0 0 1-2.5.663l-.433-.247a6.276 6.276 0 0 1-1.143.632v.5A1.829 1.829 0 0 1 11.374 18H9.9a1.827 1.827 0 0 1-1.834-1.821v-.588a6.277 6.277 0 0 1-1.029-.606l-.547.311a1.846 1.846 0 0 1-2.5-.663l-.738-1.259a1.81 1.81 0 0 1 .675-2.491l.578-.329Q4.48 10.279 4.48 10t.02-.554l-.578-.329a1.81 1.81 0 0 1-.675-2.491l.738-1.259a1.846 1.846 0 0 1 2.5-.663l.547.311a6.277 6.277 0 0 1 1.029-.606zm1.454 1.072a.727.727 0 0 1-.475.682 4.823 4.823 0 0 0-1.469.866.727.727 0 0 1-.834.081l-.972-.553a.391.391 0 0 0-.527.134L4.5 7.361a.356.356 0 0 0 .139.492l1 .571A.727.727 0 0 1 6 9.182a4.709 4.709 0 0 0 0 1.635.727.727 0 0 1-.356.759l-1 .571a.356.356 0 0 0-.139.492l.736 1.261a.391.391 0 0 0 .527.134l.972-.553a.727.727 0 0 1 .834.081 4.823 4.823 0 0 0 1.469.866.727.727 0 0 1 .475.682v1.072a.372.372 0 0 0 .38.366h1.476a.374.374 0 0 0 .38-.366v-1a.727.727 0 0 1 .5-.691 4.822 4.822 0 0 0 1.575-.867.727.727 0 0 1 .823-.072l.85.484a.391.391 0 0 0 .527-.134l.738-1.259a.355.355 0 0 0-.139-.492l-.818-.465a.727.727 0 0 1-.354-.773 4.7 4.7 0 0 0 0-1.817.727.727 0 0 1 .354-.773l.818-.465a.355.355 0 0 0 .139-.492L16.031 6.1a.391.391 0 0 0-.527-.134l-.85.484a.727.727 0 0 1-.823-.072 4.822 4.822 0 0 0-1.575-.867.727.727 0 0 1-.5-.691v-1a.372.372 0 0 0-.38-.366H9.9a.374.374 0 0 0-.38.366zm1.118 7.653A2.545 2.545 0 1 1 13.181 10a2.545 2.545 0 0 1-2.545 2.545zm0-1.455A1.091 1.091 0 1 0 9.545 10a1.091 1.091 0 0 0 1.091 1.091z" transform="translate(-21288 -7143)"/>
</symbol><symbol id="icon-setting" viewBox="-18909.107 -18268.334 16.211 16.666">
    <path data-name="Path 660" d="M-18894.808-18259.183a6.494 6.494 0 0 0 .058-.817 6.494 6.494 0 0 0-.058-.817l1.758-1.375a.42.42 0 0 0 .1-.533l-1.666-2.883a.419.419 0 0 0-.508-.183l-2.075.833a6.088 6.088 0 0 0-1.408-.817l-.318-2.208a.406.406 0 0 0-.408-.35h-3.333a.406.406 0 0 0-.408.35l-.317 2.208a6.4 6.4 0 0 0-1.408.817l-2.079-.833a.406.406 0 0 0-.5.183l-1.672 2.883a.411.411 0 0 0 .1.533l1.759 1.376a6.609 6.609 0 0 0-.058.817 6.609 6.609 0 0 0 .058.817l-1.759 1.374a.42.42 0 0 0-.1.533l1.672 2.884a.419.419 0 0 0 .508.183l2.075-.833a6.088 6.088 0 0 0 1.408.817l.309 2.208a.406.406 0 0 0 .408.35h3.333a.406.406 0 0 0 .408-.35l.317-2.208a6.4 6.4 0 0 0 1.408-.817l2.075.833a.407.407 0 0 0 .508-.183l1.667-2.883a.42.42 0 0 0-.1-.533zm-6.192 2.1a2.917 2.917 0 1 1 2.922-2.917 2.92 2.92 0 0 1-2.922 2.917z"/>
</symbol><symbol id="icon-shop-cart" viewBox="-19493 -14560 18 18">
    <path d="M-19493-14557.952a2.047 2.047 0 0 1 2.048-2.048h13.9a2.047 2.047 0 0 1 2.052 2.048v13.9a2.047 2.047 0 0 1-2.048 2.052h-13.904a2.047 2.047 0 0 1-2.048-2.048zm1.636 0v13.9a.411.411 0 0 0 .412.412h13.9a.411.411 0 0 0 .412-.412v-13.9a.411.411 0 0 0-.412-.412h-13.9a.411.411 0 0 0-.412.412zm10.228 1.225a.818.818 0 0 1 1.636 0v2.045a4.5 4.5 0 1 1-9 0v-2.045a.818.818 0 0 1 1.636 0v2.045a2.864 2.864 0 1 0 5.727 0z"/>
</symbol><symbol id="icon-shop-check" viewBox="-18366 -13657 14.727 18">
    
    <path id="Combined-Shape" class="cls-1" d="M7.184 19.913A.818.818 0 0 1 6 19.181V4.048A2.044 2.044 0 0 1 8.044 2h10.639a2.045 2.045 0 0 1 2.044 2.048v15.133a.818.818 0 0 1-1.184.732l-1.27-.635-1.273.635a.818.818 0 0 1-.732 0L15 19.277l-1.27.635a.818.818 0 0 1-.732 0l-1.27-.635-1.27.635a.818.818 0 0 1-.732 0l-1.27-.635zM19.09 4.048a.409.409 0 0 0-.407-.412H8.044a.408.408 0 0 0-.407.412v13.809l.452-.226a.818.818 0 0 1 .732 0l1.27.635 1.27-.635a.818.818 0 0 1 .732 0l1.27.635 1.27-.635a.818.818 0 0 1 .732 0l1.27.635 1.27-.635a.818.818 0 0 1 .732 0l.452.226zM10.5 7.727a.818.818 0 0 1 0-1.636h5.727a.818.818 0 1 1 0 1.636zm0 2.863a.818.818 0 0 1 0-1.636h5.727a.818.818 0 1 1 0 1.636zm0 2.863a.818.818 0 0 1 0-1.636h3.273a.818.818 0 0 1 0 1.636z" transform="translate(-18372 -13659)"/>
</symbol><symbol id="icon-social-cross" viewBox="-14283.485 -10029.485 16.971 16.971">
    
    <g id="Group_1329" data-name="Group 1329" transform="translate(-15493 -10759)">
        <path id="Rectangle_184" data-name="Rectangle 184" class="cls-1" transform="rotate(45 -268.067 1843.549)" d="M0 0h2v22H0z"/>
        <path id="Rectangle_185" data-name="Rectangle 185" class="cls-1" transform="rotate(45 -275.138 1826.478)" d="M0 0h22v2H0z"/>
    </g>
</symbol><symbol id="icon-social-open" viewBox="-16975 -9989 20 20">
    
    <path id="Path_127" data-name="Path 127" class="cls-1" d="M21 6h-2v9H6v2a1 1 0 0 0 1 1h11l4 4V7a1 1 0 0 0-1-1zm-4 6V3a1 1 0 0 0-1-1H3a1 1 0 0 0-1 1v14l4-4h10a1 1 0 0 0 1-1z" transform="translate(-16977 -9991)"/>
</symbol><symbol id="icon-statistic" viewBox="-19741 -15877 18 18">
    
    <path id="chart-2" class="cls-1" d="M16.727 4.048v13.9a.41.41 0 0 0 .41.412h.817a.41.41 0 0 0 .41-.412v-13.9a.41.41 0 0 0-.41-.412h-.817a.41.41 0 0 0-.41.412zm-1.636 0A2.046 2.046 0 0 1 17.137 2h.817A2.046 2.046 0 0 1 20 4.048v13.9A2.046 2.046 0 0 1 17.954 20h-.817a2.046 2.046 0 0 1-2.046-2.048zM2 8.953a2.044 2.044 0 0 1 2.046-2.044h.817a2.047 2.047 0 0 1 2.046 2.044v9A2.044 2.044 0 0 1 4.863 20h-.817A2.047 2.047 0 0 1 2 17.956v-9zm1.636 0v9a.411.411 0 0 0 .41.407h.817a.407.407 0 0 0 .41-.407v-9a.411.411 0 0 0-.41-.407h-.817a.407.407 0 0 0-.41.407zm4.909 4.914a2.046 2.046 0 0 1 2.046-2.049h.817a2.045 2.045 0 0 1 2.046 2.05v4.082A2.046 2.046 0 0 1 11.408 20h-.817a2.045 2.045 0 0 1-2.046-2.05v-4.082zm1.636 0v4.084a.409.409 0 0 0 .41.413h.817a.41.41 0 0 0 .41-.413v-4.083a.409.409 0 0 0-.41-.413h-.817a.41.41 0 0 0-.41.413z" transform="translate(-19743 -15879)"/>
</symbol><symbol id="icon-support" viewBox="-15254 -3614 18 18">
    <path d="M-15240.987-3596.942a9.018 9.018 0 0 1-8.026 0 1.928 1.928 0 0 1-2.067-.469l-1.509-1.509a1.93 1.93 0 0 1-.469-2.067 9.02 9.02 0 0 1 0-8.03 1.923 1.923 0 0 1 .469-2.063l1.509-1.508a1.923 1.923 0 0 1 2.063-.468 9.018 9.018 0 0 1 8.035 0 1.924 1.924 0 0 1 2.063.468l1.507 1.508a1.922 1.922 0 0 1 .468 2.063 9.018 9.018 0 0 1 0 8.03 1.93 1.93 0 0 1-.47 2.067l-1.506 1.509a1.929 1.929 0 0 1-2.067.469zm-6.756-14.894l1.188 1.694.033.045a5.354 5.354 0 0 1 3.044 0l.021-.029 1.2-1.709a7.393 7.393 0 0 0-5.486 0zm0 13.672a7.393 7.393 0 0 0 5.486 0l-1.2-1.709-.021-.029a5.355 5.355 0 0 1-3.044 0l-.033.045-1.188 1.693zm9.579-9.579l-1.693 1.188-.046.033a5.355 5.355 0 0 1 0 3.044l.029.021 1.71 1.2a7.393 7.393 0 0 0 0-5.486zm-13.672 0a7.392 7.392 0 0 0 0 5.486l1.71-1.2.029-.021a5.355 5.355 0 0 1 0-3.044l-.045-.033-1.694-1.188zm.4 7.666l1.508 1.508a.29.29 0 0 0 .479-.02l1.573-2.241a.251.251 0 0 0-.023-.277l-1-1a.252.252 0 0 0-.293-.011l-2.208 1.555a.294.294 0 0 0-.03.486zm9.3-9.094a.249.249 0 0 0 .023.277l1 1a.255.255 0 0 0 .293.011l2.22-1.55a.3.3 0 0 0 .036-.49l-1.513-1.508a.294.294 0 0 0-.486.03l-1.566 2.231zm-7.034 1.3a.249.249 0 0 0 .277-.023l1-1a.255.255 0 0 0 .011-.293l-1.551-2.208a.3.3 0 0 0-.49-.036l-1.508 1.508a.294.294 0 0 0 .03.486l2.231 1.566zm9.093 9.3l1.509-1.509a.29.29 0 0 0-.02-.479l-2.241-1.573a.251.251 0 0 0-.277.023l-1 1a.252.252 0 0 0-.011.293l1.554 2.216a.294.294 0 0 0 .486.03zm-3.623-2.984a1.811 1.811 0 0 1 .435-.709l1-1a1.816 1.816 0 0 1 .709-.436 3.7 3.7 0 0 0 0-2.6 1.809 1.809 0 0 1-.709-.435l-1-1a1.818 1.818 0 0 1-.436-.71 3.7 3.7 0 0 0-2.6 0 1.809 1.809 0 0 1-.435.709l-1 1a1.818 1.818 0 0 1-.709.436 3.695 3.695 0 0 0 0 2.6 1.805 1.805 0 0 1 .708.435l1 1a1.816 1.816 0 0 1 .436.709 3.7 3.7 0 0 0 2.6 0z"/>
</symbol><symbol id="icon-telegram" viewBox="-14287 -10098 22 19.155">
    
    <path id="XMLID_497_" class="cls-1" d="M.389 28.585l5.069 1.892 1.962 6.31a.6.6 0 0 0 .948.285l2.826-2.3a.843.843 0 0 1 1.028-.029l5.1 3.7a.6.6 0 0 0 .936-.361l3.733-17.959a.6.6 0 0 0-.8-.679L.383 27.467a.6.6 0 0 0 .006 1.118zm6.711.885l9.907-6.1a.173.173 0 0 1 .208.273l-8.176 7.6a1.7 1.7 0 0 0-.525 1.014l-.275 2.063a.256.256 0 0 1-.5.036l-1.071-3.764A1 1 0 0 1 7.1 29.47z" transform="translate(-14287 -10117.401)"/>
</symbol><symbol id="icon-user" viewBox="-19493 -14656 18 18">
    
    <path id="user" class="cls-1" d="M11 11a4.5 4.5 0 1 1 4.5-4.5A4.5 4.5 0 0 1 11 11zm0-1.636A2.864 2.864 0 1 0 8.136 6.5 2.864 2.864 0 0 0 11 9.364zm8.516 5.794a5.269 5.269 0 0 1 .331 1.357q.091.627.141 1.259L20 17.9v.058A2.045 2.045 0 0 1 17.957 20H4.043A2.045 2.045 0 0 1 2 17.955V17.9l.009-.122q.052-.631.141-1.259a5.269 5.269 0 0 1 .331-1.357c.629-1.365 5.258-3.34 8.516-3.34s7.89 1.971 8.519 3.336zm-1.57.623a4.211 4.211 0 0 0-.481-.351 11.892 11.892 0 0 0-1.714-.886A12.622 12.622 0 0 0 11 13.455a12.623 12.623 0 0 0-4.752 1.091 11.892 11.892 0 0 0-1.714.886 4.249 4.249 0 0 0-.481.351 1.242 1.242 0 0 0-.1.094 5.111 5.111 0 0 0-.185.878 13.7 13.7 0 0 0-.1.867c-.015.153-.025.277-.031.356a.409.409 0 0 0 .406.387h13.914a.409.409 0 0 0 .406-.387c-.006-.08-.016-.2-.031-.356q-.041-.435-.1-.868a5.111 5.111 0 0 0-.185-.878 1.163 1.163 0 0 0-.1-.094z" transform="translate(-19495 -14658)"/>
</symbol><symbol id="icon-users" viewBox="-19493 -14461 18 12.8">
    <path d="M-19480.253-14449.4a1.635 1.635 0 0 1-1.585 1.2h-9.524a1.624 1.624 0 0 1-1.638-1.608v-.059c0-.061.013-.163.026-.292.022-.216.048-.433.079-.638a3.55 3.55 0 0 1 .251-.971c.484-1.006 3.734-2.34 6.044-2.34a10.671 10.671 0 0 1 3.567.738 7.892 7.892 0 0 1 3.233-.83c1.732 0 4.141 1.027 4.527 1.865a2.858 2.858 0 0 1 .194.773c.023.156.042.32.058.483.009.1.016.175.019.222v.057a1.4 1.4 0 0 1-1.4 1.4zm-.889-2.992a1.882 1.882 0 0 1 .583.623 3.022 3.022 0 0 1 .218.769h3.72a6.872 6.872 0 0 0-.088-.595 1.876 1.876 0 0 0-.146-.1 5.423 5.423 0 0 0-.778-.4 5.787 5.787 0 0 0-2.166-.5 5 5 0 0 0-1.342.208zm1.342-2.608a2.4 2.4 0 1 1 2.4-2.4 2.4 2.4 0 0 1-2.4 2.4zm0-1.6a.8.8 0 1 0-.8-.8.8.8 0 0 0 .8.8zm-6.8 1.508a2.954 2.954 0 1 1 2.954-2.954 2.954 2.954 0 0 1-2.954 2.954zm0-1.6a1.354 1.354 0 1 0-1.354-1.354 1.354 1.354 0 0 0 1.354 1.354zm4.608 5.661a2.67 2.67 0 0 0-.3-.21 8.036 8.036 0 0 0-1.139-.565 8.717 8.717 0 0 0-3.169-.7 8.717 8.717 0 0 0-3.169.7 8.035 8.035 0 0 0-1.139.565 2.667 2.667 0 0 0-.3.21l-.009.008a4.2 4.2 0 0 0-.093.467 10.597 10.597 0 0 0-.087.749.082.082 0 0 0 .036.008h9.523a.082.082 0 0 0 .036-.008c0-.049-.01-.114-.018-.192a10.597 10.597 0 0 0-.069-.557 4.208 4.208 0 0 0-.093-.467z"/>
</symbol><symbol id="icon-viber" viewBox="-14287 -10237 24 24.807">
    
    <g id="Group_1333" data-name="Group 1333" transform="translate(-14287 -10237)">
        <path id="Path_1324" data-name="Path 1324" class="cls-1" d="M100.449 77.88l-.007-.029a8.274 8.274 0 0 0-5.586-5.375l-.027-.006a31.044 31.044 0 0 0-11.685 0l-.028.006a8.277 8.277 0 0 0-5.586 5.375l-.006.029a22.871 22.871 0 0 0 0 9.853l.006.029a8.345 8.345 0 0 0 5.279 5.3v2.608a1.05 1.05 0 0 0 1.808.728l2.647-2.752c.574.032 1.149.05 1.723.05a31.144 31.144 0 0 0 5.843-.554l.027-.006a8.274 8.274 0 0 0 5.586-5.375l.007-.029a22.871 22.871 0 0 0-.001-9.852zm-2.095 9.379a6.258 6.258 0 0 1-3.943 3.776 28.936 28.936 0 0 1-6.215.5.147.147 0 0 0-.11.044l-1.933 1.984-2.053 2.112a.241.241 0 0 1-.414-.166v-4.328a.149.149 0 0 0-.121-.146 6.26 6.26 0 0 1-3.943-3.776 20.755 20.755 0 0 1 0-8.9 6.26 6.26 0 0 1 3.943-3.776 28.912 28.912 0 0 1 10.851 0 6.256 6.256 0 0 1 3.943 3.776 20.733 20.733 0 0 1-.005 8.899z" transform="translate(-76.986 -71.916)"/>
        <path id="Path_1325" data-name="Path 1325" class="cls-1" d="M158.985 151.951c-.242-.073-.473-.123-.687-.212a15.608 15.608 0 0 1-5.882-3.931 15.265 15.265 0 0 1-2.25-3.443c-.289-.587-.532-1.2-.78-1.8a1.564 1.564 0 0 1 .458-1.54 3.616 3.616 0 0 1 1.212-.91.778.778 0 0 1 .973.231 12.546 12.546 0 0 1 1.505 2.106 1 1 0 0 1-.281 1.358c-.114.077-.218.168-.324.256a1.06 1.06 0 0 0-.244.258.706.706 0 0 0-.047.62 5.61 5.61 0 0 0 3.15 3.488 1.6 1.6 0 0 0 .807.2c.494-.058.653-.6 1-.882a.942.942 0 0 1 1.134-.05c.364.23.717.478 1.068.728a12.228 12.228 0 0 1 1.005.765.8.8 0 0 1 .239.987 3.338 3.338 0 0 1-1.434 1.58 3.461 3.461 0 0 1-.62.2c-.244-.083.213-.074-.002-.009z" transform="translate(-143.559 -134.61)"/>
        <path id="Path_1326" data-name="Path 1326" class="cls-1" d="M221.882 131.457a5.9 5.9 0 0 1 5.8 4.88c.087.489.118.989.157 1.486a.348.348 0 0 1-.327.41c-.233 0-.338-.192-.353-.4-.03-.413-.051-.828-.108-1.238a5.189 5.189 0 0 0-4.179-4.337c-.324-.058-.656-.073-.984-.107-.208-.022-.479-.034-.525-.292a.354.354 0 0 1 .35-.4h.169c2.905.079-.056-.002 0-.002z" transform="translate(-209.876 -126.72)"/>
        <path id="Path_1327" data-name="Path 1327" class="cls-1" d="M232.469 155.142a1.332 1.332 0 0 1-.029.2.33.33 0 0 1-.621.034.878.878 0 0 1-.035-.281 3.518 3.518 0 0 0-.445-1.765 3.284 3.284 0 0 0-1.377-1.292 3.962 3.962 0 0 0-1.1-.337c-.166-.027-.333-.044-.5-.067a.316.316 0 0 1-.3-.355.312.312 0 0 1 .348-.309 4.565 4.565 0 0 1 1.9.5 3.848 3.848 0 0 1 2.094 2.99c.009.061.024.121.028.182.011.151.019.3.03.5.003.036-.004-.199.007 0z" transform="translate(-216.05 -144.684)"/>
        <path id="Path_1328" data-name="Path 1328" class="cls-1" d="M235.769 173.485a.359.359 0 0 1-.4-.353 3.657 3.657 0 0 0-.068-.464 1.306 1.306 0 0 0-.482-.756 1.257 1.257 0 0 0-.392-.189c-.178-.051-.363-.037-.541-.081a.332.332 0 0 1-.27-.385.349.349 0 0 1 .368-.281 2 2 0 0 1 2.046 1.989.922.922 0 0 1 0 .282.289.289 0 0 1-.26.237c-.244.005.109-.007-.001.001z" transform="translate(-221.156 -163.097)"/>
    </g>
</symbol><symbol id="icon-video-camera" viewBox="-15254 -3563 18 12.273">
    <path d="M-15240.909-3555.665l3.273 2.182v-6.761l-3.273 2.182zm0-4.364l3.637-2.425a.818.818 0 0 1 1.272.681v9.818a.818.818 0 0 1-1.272.681l-3.637-2.426v.923a2.049 2.049 0 0 1-2.044 2.049h-9a2.045 2.045 0 0 1-2.047-2.048v-8.175a2.049 2.049 0 0 1 2.044-2.049h9a2.045 2.045 0 0 1 2.044 2.049v.923zm-11.455-.922v8.175a.409.409 0 0 0 .408.412h9a.412.412 0 0 0 .408-.412v-8.175a.409.409 0 0 0-.408-.412h-9a.412.412 0 0 0-.408.412z"/>
</symbol><symbol id="icon-wallet" viewBox="-19493 -14606 18 13.909">
    <path d="M-19475.818-14601.908a2.039 2.039 0 0 1 .818 1.634v2.457a2.038 2.038 0 0 1-.818 1.636v2.045a2.048 2.048 0 0 1-2.045 2.045h-13.093a2.046 2.046 0 0 1-2.044-2.045v-9.819a2.048 2.048 0 0 1 2.044-2.045h13.093a2.046 2.046 0 0 1 2.045 2.045v2.046zm-1.636-.41v-1.637a.41.41 0 0 0-.408-.409h-13.094a.411.411 0 0 0-.408.409v9.818a.41.41 0 0 0 .408.409h13.093a.411.411 0 0 0 .408-.409v-1.636h-3.677a2.047 2.047 0 0 1-2.049-2.044v-2.457a2.044 2.044 0 0 1 2.049-2.044zm-4.091 2.044v2.457a.41.41 0 0 0 .413.408h4.083a.408.408 0 0 0 .413-.408v-2.457a.41.41 0 0 0-.413-.408h-4.083a.408.408 0 0 0-.413.408zm1.636 2.047a.818.818 0 1 1 .818-.818.818.818 0 0 1-.818.818z"/>
</symbol><symbol id="icon-whatsapp" viewBox="-14287 -10169 24 24">
    
    <path id="WhatsApp" class="cls-1" d="M24 11.691A11.8 11.8 0 0 1 6.523 21.927L0 24l2.127-6.273a11.568 11.568 0 0 1-1.691-6.036 11.782 11.782 0 0 1 23.564 0zM12.218 1.862a9.878 9.878 0 0 0-9.906 9.829A9.726 9.726 0 0 0 4.2 17.454L2.962 21.1l3.807-1.21a9.915 9.915 0 0 0 15.355-8.2 9.879 9.879 0 0 0-9.906-9.828zm5.95 12.522c-.073-.119-.265-.191-.554-.334s-1.709-.837-1.973-.932-.458-.143-.65.143-.746.932-.915 1.123-.337.216-.626.072a7.9 7.9 0 0 1-2.322-1.422 8.64 8.64 0 0 1-1.607-1.984c-.168-.287-.018-.442.127-.584s.289-.335.433-.5a1.921 1.921 0 0 0 .289-.478.522.522 0 0 0-.024-.5c-.072-.143-.65-1.553-.891-2.127s-.481-.478-.65-.478-.361-.024-.554-.024a1.066 1.066 0 0 0-.77.358A3.2 3.2 0 0 0 6.471 9.1a5.545 5.545 0 0 0 1.179 2.966 11.806 11.806 0 0 0 4.933 4.326c2.936 1.147 2.936.764 3.466.716A2.921 2.921 0 0 0 18 15.746a2.389 2.389 0 0 0 .168-1.363z" transform="translate(-14287 -10169)"/>
</symbol></svg>